<svg width="33" height="30" viewBox="0 0 33 30" fill="none" xmlns="http://www.w3.org/2000/svg">
<rect width="32.132" height="30" rx="4" fill="#0095DA"/>
<path d="M12.1963 10.4512V19H10.5088V12.3965L8.48145 13.041V11.7109L12.0146 10.4512H12.1963ZM21.3158 13.9844V15.4609C21.3158 16.1016 21.2475 16.6543 21.1107 17.1191C20.974 17.5801 20.7768 17.959 20.5189 18.2559C20.265 18.5488 19.9623 18.7656 19.6107 18.9062C19.2592 19.0469 18.8686 19.1172 18.4389 19.1172C18.0951 19.1172 17.7748 19.0742 17.4779 18.9883C17.1811 18.8984 16.9135 18.7598 16.6752 18.5723C16.4408 18.3848 16.2377 18.1484 16.0658 17.8633C15.8979 17.5742 15.7689 17.2305 15.6791 16.832C15.5893 16.4336 15.5443 15.9766 15.5443 15.4609V13.9844C15.5443 13.3438 15.6127 12.7949 15.7494 12.3379C15.89 11.877 16.0873 11.5 16.3412 11.207C16.599 10.9141 16.9037 10.6992 17.2553 10.5625C17.6068 10.4219 17.9975 10.3516 18.4271 10.3516C18.7709 10.3516 19.0893 10.3965 19.3822 10.4863C19.6791 10.5723 19.9467 10.707 20.185 10.8906C20.4232 11.0742 20.6264 11.3105 20.7943 11.5996C20.9623 11.8848 21.0912 12.2266 21.1811 12.625C21.2709 13.0195 21.3158 13.4727 21.3158 13.9844ZM19.6225 15.6836V13.7559C19.6225 13.4473 19.6049 13.1777 19.5697 12.9473C19.5385 12.7168 19.4896 12.5215 19.4232 12.3613C19.3568 12.1973 19.2748 12.0645 19.1771 11.9629C19.0795 11.8613 18.9682 11.7871 18.8432 11.7402C18.7182 11.6934 18.5795 11.6699 18.4271 11.6699C18.2357 11.6699 18.0658 11.707 17.9174 11.7812C17.7729 11.8555 17.6498 11.9746 17.5482 12.1387C17.4467 12.2988 17.3686 12.5137 17.3139 12.7832C17.2631 13.0488 17.2377 13.373 17.2377 13.7559V15.6836C17.2377 15.9922 17.2533 16.2637 17.2846 16.498C17.3197 16.7324 17.3705 16.9336 17.4369 17.1016C17.5072 17.2656 17.5893 17.4004 17.683 17.5059C17.7807 17.6074 17.892 17.6816 18.017 17.7285C18.1459 17.7754 18.2865 17.7988 18.4389 17.7988C18.6264 17.7988 18.7924 17.7617 18.9369 17.6875C19.0854 17.6094 19.2104 17.4883 19.3119 17.3242C19.4174 17.1562 19.4955 16.9375 19.5463 16.668C19.5971 16.3984 19.6225 16.0703 19.6225 15.6836Z" fill="white"/>
</svg>
