<svg width="33" height="30" viewBox="0 0 33 30" fill="none" xmlns="http://www.w3.org/2000/svg">
<rect width="32.132" height="30" rx="4" fill="#FBC115"/>
<path d="M12.1963 10.4512V19H10.5088V12.3965L8.48145 13.041V11.7109L12.0146 10.4512H12.1963ZM21.4096 17.6816V19H15.5736V17.875L18.3334 14.916C18.6107 14.6074 18.8295 14.3359 18.9896 14.1016C19.1498 13.8633 19.265 13.6504 19.3354 13.4629C19.4096 13.2715 19.4467 13.0898 19.4467 12.918C19.4467 12.6602 19.4037 12.4395 19.3178 12.2559C19.2318 12.0684 19.1049 11.9238 18.9369 11.8223C18.7729 11.7207 18.5697 11.6699 18.3275 11.6699C18.0697 11.6699 17.8471 11.7324 17.6596 11.8574C17.476 11.9824 17.3354 12.1562 17.2377 12.3789C17.1439 12.6016 17.0971 12.8535 17.0971 13.1348H15.4037C15.4037 12.627 15.5248 12.1621 15.767 11.7402C16.0092 11.3145 16.351 10.9766 16.7924 10.7266C17.2338 10.4727 17.7572 10.3457 18.3627 10.3457C18.9604 10.3457 19.4643 10.4434 19.8744 10.6387C20.2885 10.8301 20.601 11.1074 20.8119 11.4707C21.0268 11.8301 21.1342 12.2598 21.1342 12.7598C21.1342 13.041 21.0893 13.3164 20.9994 13.5859C20.9096 13.8516 20.7807 14.1172 20.6127 14.3828C20.4486 14.6445 20.2494 14.9102 20.015 15.1797C19.7807 15.4492 19.5209 15.7285 19.2357 16.0176L17.7533 17.6816H21.4096Z" fill="white"/>
</svg>
