<svg width="33" height="30" viewBox="0 0 33 30" fill="none" xmlns="http://www.w3.org/2000/svg">
<rect width="32.132" height="30" rx="4" fill="#FBC115"/>
<path d="M12.1968 10.4512V19H10.5093V12.3965L8.48193 13.041V11.7109L12.0151 10.4512H12.1968ZM21.4101 17.6816V19H15.5741V17.875L18.3339 14.916C18.6112 14.6074 18.83 14.3359 18.9901 14.1016C19.1503 13.8633 19.2655 13.6504 19.3358 13.4629C19.4101 13.2715 19.4472 13.0898 19.4472 12.918C19.4472 12.6602 19.4042 12.4395 19.3183 12.2559C19.2323 12.0684 19.1054 11.9238 18.9374 11.8223C18.7733 11.7207 18.5702 11.6699 18.328 11.6699C18.0702 11.6699 17.8476 11.7324 17.6601 11.8574C17.4765 11.9824 17.3358 12.1562 17.2382 12.3789C17.1444 12.6016 17.0976 12.8535 17.0976 13.1348H15.4042C15.4042 12.627 15.5253 12.1621 15.7675 11.7402C16.0097 11.3145 16.3515 10.9766 16.7929 10.7266C17.2343 10.4727 17.7577 10.3457 18.3632 10.3457C18.9608 10.3457 19.4647 10.4434 19.8749 10.6387C20.289 10.8301 20.6015 11.1074 20.8124 11.4707C21.0272 11.8301 21.1347 12.2598 21.1347 12.7598C21.1347 13.041 21.0897 13.3164 20.9999 13.5859C20.9101 13.8516 20.7812 14.1172 20.6132 14.3828C20.4491 14.6445 20.2499 14.9102 20.0155 15.1797C19.7812 15.4492 19.5214 15.7285 19.2362 16.0176L17.7538 17.6816H21.4101Z" fill="white"/>
</svg>
