<svg width="33" height="30" viewBox="0 0 33 30" fill="none" xmlns="http://www.w3.org/2000/svg">
<rect width="32.132" height="30" rx="4" fill="#EC1D25"/>
<path d="M12.1963 10.4512V19H10.5088V12.3965L8.48145 13.041V11.7109L12.0146 10.4512H12.1963ZM19.9271 10.3809H20.1732V11.7285H20.0736C19.6283 11.7285 19.2318 11.7949 18.8842 11.9277C18.5365 12.0605 18.2416 12.25 17.9994 12.4961C17.7611 12.7383 17.5775 13.0312 17.4486 13.375C17.3236 13.7188 17.2611 14.1035 17.2611 14.5293V15.9473C17.2611 16.252 17.2904 16.5215 17.349 16.7559C17.4115 16.9863 17.4994 17.1797 17.6127 17.3359C17.7299 17.4883 17.8666 17.6035 18.0229 17.6816C18.1791 17.7559 18.3549 17.793 18.5502 17.793C18.7338 17.793 18.8998 17.7539 19.0482 17.6758C19.2006 17.5977 19.3295 17.4883 19.435 17.3477C19.5443 17.2031 19.6264 17.0352 19.6811 16.8438C19.7396 16.6484 19.7689 16.4355 19.7689 16.2051C19.7689 15.9746 19.7396 15.7617 19.6811 15.5664C19.6264 15.3711 19.5443 15.2031 19.435 15.0625C19.3256 14.918 19.1928 14.8066 19.0365 14.7285C18.8803 14.6504 18.7045 14.6113 18.5092 14.6113C18.2436 14.6113 18.0092 14.6738 17.8061 14.7988C17.6068 14.9199 17.4506 15.0762 17.3373 15.2676C17.224 15.459 17.1635 15.6602 17.1557 15.8711L16.6459 15.543C16.6576 15.2422 16.7201 14.957 16.8334 14.6875C16.9506 14.418 17.1107 14.1797 17.3139 13.9727C17.5209 13.7617 17.7689 13.5977 18.058 13.4805C18.3471 13.3594 18.6732 13.2988 19.0365 13.2988C19.435 13.2988 19.7846 13.375 20.0854 13.5273C20.39 13.6797 20.6439 13.8887 20.8471 14.1543C21.0502 14.4199 21.2025 14.7266 21.3041 15.0742C21.4057 15.4219 21.4564 15.793 21.4564 16.1875C21.4564 16.6016 21.3881 16.9863 21.2514 17.3418C21.1186 17.6973 20.9252 18.0078 20.6713 18.2734C20.4213 18.5391 20.1205 18.7461 19.7689 18.8945C19.4174 19.043 19.0229 19.1172 18.5854 19.1172C18.1322 19.1172 17.7201 19.0352 17.349 18.8711C16.9818 18.7031 16.6654 18.4688 16.3998 18.168C16.1342 17.8672 15.9291 17.5098 15.7846 17.0957C15.6439 16.6816 15.5736 16.2285 15.5736 15.7363V15.0801C15.5736 14.3926 15.6732 13.7637 15.8725 13.1934C16.0756 12.6191 16.3666 12.123 16.7455 11.7051C17.1244 11.2832 17.5814 10.957 18.1166 10.7266C18.6518 10.4961 19.2553 10.3809 19.9271 10.3809Z" fill="white"/>
</svg>
