<svg width="33" height="30" viewBox="0 0 33 30" fill="none" xmlns="http://www.w3.org/2000/svg">
<rect width="32.132" height="30" rx="4" fill="#EC1D25"/>
<path d="M12.1968 10.4512V19H10.5093V12.3965L8.48193 13.041V11.7109L12.0151 10.4512H12.1968ZM19.9276 10.3809H20.1737V11.7285H20.0741C19.6288 11.7285 19.2323 11.7949 18.8847 11.9277C18.537 12.0605 18.2421 12.25 17.9999 12.4961C17.7616 12.7383 17.578 13.0312 17.4491 13.375C17.3241 13.7188 17.2616 14.1035 17.2616 14.5293V15.9473C17.2616 16.252 17.2909 16.5215 17.3495 16.7559C17.412 16.9863 17.4999 17.1797 17.6132 17.3359C17.7304 17.4883 17.8671 17.6035 18.0233 17.6816C18.1796 17.7559 18.3554 17.793 18.5507 17.793C18.7343 17.793 18.9003 17.7539 19.0487 17.6758C19.2011 17.5977 19.33 17.4883 19.4354 17.3477C19.5448 17.2031 19.6269 17.0352 19.6815 16.8438C19.7401 16.6484 19.7694 16.4355 19.7694 16.2051C19.7694 15.9746 19.7401 15.7617 19.6815 15.5664C19.6269 15.3711 19.5448 15.2031 19.4354 15.0625C19.3261 14.918 19.1933 14.8066 19.037 14.7285C18.8808 14.6504 18.705 14.6113 18.5097 14.6113C18.244 14.6113 18.0097 14.6738 17.8065 14.7988C17.6073 14.9199 17.4511 15.0762 17.3378 15.2676C17.2245 15.459 17.164 15.6602 17.1562 15.8711L16.6464 15.543C16.6581 15.2422 16.7206 14.957 16.8339 14.6875C16.9511 14.418 17.1112 14.1797 17.3144 13.9727C17.5214 13.7617 17.7694 13.5977 18.0585 13.4805C18.3476 13.3594 18.6737 13.2988 19.037 13.2988C19.4354 13.2988 19.7851 13.375 20.0858 13.5273C20.3905 13.6797 20.6444 13.8887 20.8476 14.1543C21.0507 14.4199 21.203 14.7266 21.3046 15.0742C21.4062 15.4219 21.4569 15.793 21.4569 16.1875C21.4569 16.6016 21.3886 16.9863 21.2519 17.3418C21.119 17.6973 20.9257 18.0078 20.6718 18.2734C20.4218 18.5391 20.121 18.7461 19.7694 18.8945C19.4179 19.043 19.0233 19.1172 18.5858 19.1172C18.1327 19.1172 17.7206 19.0352 17.3495 18.8711C16.9823 18.7031 16.6659 18.4688 16.4003 18.168C16.1347 17.8672 15.9296 17.5098 15.7851 17.0957C15.6444 16.6816 15.5741 16.2285 15.5741 15.7363V15.0801C15.5741 14.3926 15.6737 13.7637 15.8729 13.1934C16.0761 12.6191 16.3671 12.123 16.746 11.7051C17.1249 11.2832 17.5819 10.957 18.1171 10.7266C18.6522 10.4961 19.2558 10.3809 19.9276 10.3809Z" fill="white"/>
</svg>
