<svg width="68" height="68" viewBox="0 0 68 68" fill="none" xmlns="http://www.w3.org/2000/svg">
<path d="M0 27.2C0 12.1779 12.1779 0 27.2 0H61.0947C64.8503 0 67.8947 3.04446 67.8947 6.8V61.2C67.8947 64.9555 64.8503 68 61.0947 68H27.2C12.1778 68 0 55.8221 0 40.8V27.2Z" fill="#004C99"/>
<path d="M38.9112 17.1002C39.9501 16.0597 41.6344 16.0597 42.6733 17.1002C43.7121 18.1406 43.7121 19.8276 42.6733 20.868L27.6252 35.9395C26.5863 36.9799 24.902 36.9799 23.8631 35.9395C22.8243 34.899 22.8243 33.2121 23.8631 32.1716L38.9112 17.1002Z" fill="#D2DBFF"/>
<path d="M42.6733 47.2431C43.7121 48.2835 43.7121 49.9705 42.6733 51.0109C41.6344 52.0514 39.9501 52.0514 38.9112 51.0109L23.8631 35.9395C22.8243 34.899 22.8243 33.2121 23.8631 32.1716C24.902 31.1311 26.5863 31.1312 27.6252 32.1716L42.6733 47.2431Z" fill="#D2DBFF"/>
</svg>
