<svg width="1284" height="520" viewBox="0 0 1284 520" fill="none" xmlns="http://www.w3.org/2000/svg">
<path d="M0 8C0 3.58172 3.58173 0 8 0H1276C1280.42 0 1284 3.58172 1284 8V52.1156C1284 56.5339 1280.39 60.0481 1276.03 60.7503C1252.25 64.5788 1234.08 85.266 1234.08 110.212C1234.08 135.158 1252.25 155.845 1276.03 159.674C1280.39 160.376 1284 163.89 1284 168.308V202.405C1284 206.823 1280.39 210.337 1276.03 211.039C1252.25 214.868 1234.08 235.555 1234.08 260.501C1234.08 285.447 1252.25 306.134 1276.03 309.963C1280.39 310.665 1284 314.179 1284 318.597V352.694C1284 357.112 1280.39 360.626 1276.03 361.328C1252.25 365.157 1234.08 385.844 1234.08 410.79C1234.08 435.736 1252.25 456.423 1276.03 460.252C1280.39 460.954 1284 464.468 1284 468.886V512C1284 516.418 1280.42 520 1276 520H8C3.58172 520 0 516.418 0 512V468.537C0 464.242 3.41737 460.782 7.6326 459.955C30.5961 455.452 47.9254 435.152 47.9254 410.79C47.9254 386.428 30.5961 366.128 7.6326 361.625C3.41737 360.798 0 357.338 0 353.043V318.248C0 313.953 3.41737 310.493 7.6326 309.666C30.5961 305.163 47.9254 284.863 47.9254 260.501C47.9254 236.139 30.5961 215.839 7.6326 211.336C3.41737 210.509 0 207.049 0 202.754V167.959C0 163.664 3.41737 160.204 7.6326 159.377C30.5961 154.874 47.9254 134.574 47.9254 110.212C47.9254 85.8501 30.5961 65.5498 7.6326 61.0468C3.41737 60.2202 0 56.76 0 52.4645V8Z" fill="#D82F1E"/>
</svg>
