<svg width="30" height="30" viewBox="0 0 30 30" fill="none" xmlns="http://www.w3.org/2000/svg">
<g id="ri:linkedin-fill">
<path id="Vector" d="M8.67481 6.24979C8.67447 6.91283 8.41076 7.54858 7.94169 8.01719C7.47261 8.48579 6.8366 8.74887 6.17356 8.74854C5.51051 8.7482 4.87476 8.48449 4.40615 8.01542C3.93755 7.54634 3.67447 6.91033 3.67481 6.24729C3.67514 5.58424 3.93885 4.94849 4.40792 4.47988C4.877 4.01128 5.51301 3.7482 6.17606 3.74854C6.8391 3.74887 7.47485 4.01258 7.94346 4.48165C8.41206 4.95073 8.67514 5.58674 8.67481 6.24979ZM8.74981 10.5998H3.7498V26.2498H8.74981V10.5998ZM16.6498 10.5998H11.6748V26.2498H16.5998V18.0373C16.5998 13.4623 22.5623 13.0373 22.5623 18.0373V26.2498H27.4998V16.3373C27.4998 8.62478 18.6748 8.91228 16.5998 12.6998L16.6498 10.5998Z" fill="#D2DBFF"/>
</g>
</svg>
