<svg width="46" height="46" viewBox="0 0 46 46" fill="none" xmlns="http://www.w3.org/2000/svg">
<g id="User" clip-path="url(#clip0_409_1221)">
<g id="Group">
<path id="Vector" fill-rule="evenodd" clip-rule="evenodd" d="M23 24.9168C27.5923 24.9168 31.7687 26.247 34.8412 28.1196C36.3745 29.0587 37.6855 30.1608 38.6323 31.3587C39.5638 32.5394 40.25 33.9501 40.25 35.4585C40.25 37.0781 39.4622 38.3546 38.3276 39.265C37.2542 40.1275 35.8378 40.6987 34.3333 41.0973C31.3088 41.8966 27.2723 42.1668 23 42.1668C18.7277 42.1668 14.6912 41.8985 11.6667 41.0973C10.1622 40.6987 8.74575 40.1275 7.67242 39.265C6.53583 38.3527 5.75 37.0781 5.75 35.4585C5.75 33.9501 6.43617 32.5394 7.36767 31.3587C8.3145 30.1608 9.62358 29.0587 11.1588 28.1196C14.2313 26.247 18.4096 24.9168 23 24.9168ZM23 28.7502C19.1226 28.7502 15.6342 29.881 13.156 31.3932C11.9159 32.1484 10.9806 32.9687 10.3768 33.7354C9.75583 34.5212 9.58333 35.1154 9.58333 35.4585C9.58333 35.6923 9.65425 35.9396 10.0721 36.275C10.5493 36.6583 11.3793 37.0551 12.6481 37.3905C15.1742 38.0613 18.8044 38.3335 23 38.3335C27.1975 38.3335 30.8257 38.0594 33.35 37.3905C34.6207 37.0551 35.4507 36.6583 35.9279 36.275C36.3458 35.9396 36.4167 35.6923 36.4167 35.4585C36.4167 35.1135 36.2442 34.5212 35.6251 33.7354C35.0194 32.9687 34.0841 32.1484 32.844 31.3932C30.3657 29.8791 26.8774 28.7502 23 28.7502ZM23 3.8335C25.5417 3.8335 27.9792 4.84317 29.7764 6.64039C31.5737 8.43761 32.5833 10.8752 32.5833 13.4168C32.5833 15.9585 31.5737 18.396 29.7764 20.1933C27.9792 21.9905 25.5417 23.0002 23 23.0002C20.4583 23.0002 18.0208 21.9905 16.2236 20.1933C14.4263 18.396 13.4167 15.9585 13.4167 13.4168C13.4167 10.8752 14.4263 8.43761 16.2236 6.64039C18.0208 4.84317 20.4583 3.8335 23 3.8335ZM23 7.66683C22.2449 7.66683 21.4972 7.81556 20.7996 8.10452C20.1019 8.39349 19.4681 8.81703 18.9341 9.35097C18.4002 9.8849 17.9767 10.5188 17.6877 11.2164C17.3987 11.914 17.25 12.6617 17.25 13.4168C17.25 14.1719 17.3987 14.9196 17.6877 15.6173C17.9767 16.3149 18.4002 16.9488 18.9341 17.4827C19.4681 18.0166 20.1019 18.4402 20.7996 18.7291C21.4972 19.0181 22.2449 19.1668 23 19.1668C24.525 19.1668 25.9875 18.561 27.0659 17.4827C28.1442 16.4044 28.75 14.9418 28.75 13.4168C28.75 11.8918 28.1442 10.4293 27.0659 9.35097C25.9875 8.27263 24.525 7.66683 23 7.66683Z" fill="#00264D" stroke="#00264D" stroke-width="1.5"/>
</g>
</g>
<defs>
<clipPath id="clip0_409_1221">
<rect width="46" height="46" fill="white"/>
</clipPath>
</defs>
</svg>
