<svg width="46" height="46" viewBox="0 0 46 46" fill="none" xmlns="http://www.w3.org/2000/svg">
<g id="Movies">
<path id="Vector" d="M34.4998 7.66667V9.58333H30.6665V7.66667C30.6665 6.6125 29.804 5.75 28.7498 5.75H17.2498C16.1957 5.75 15.3332 6.6125 15.3332 7.66667V9.58333H11.4998V7.66667C11.4998 6.6125 10.6373 5.75 9.58317 5.75C8.529 5.75 7.6665 6.6125 7.6665 7.66667V38.3333C7.6665 39.3875 8.529 40.25 9.58317 40.25C10.6373 40.25 11.4998 39.3875 11.4998 38.3333V36.4167H15.3332V38.3333C15.3332 39.3875 16.1957 40.25 17.2498 40.25H28.7498C29.804 40.25 30.6665 39.3875 30.6665 38.3333V36.4167H34.4998V38.3333C34.4998 39.3875 35.3623 40.25 36.4165 40.25C37.4707 40.25 38.3332 39.3875 38.3332 38.3333V7.66667C38.3332 6.6125 37.4707 5.75 36.4165 5.75C35.3623 5.75 34.4998 6.6125 34.4998 7.66667ZM15.3332 32.5833H11.4998V28.75H15.3332V32.5833ZM15.3332 24.9167H11.4998V21.0833H15.3332V24.9167ZM15.3332 17.25H11.4998V13.4167H15.3332V17.25ZM34.4998 32.5833H30.6665V28.75H34.4998V32.5833ZM34.4998 24.9167H30.6665V21.0833H34.4998V24.9167ZM34.4998 17.25H30.6665V13.4167H34.4998V17.25Z" fill="#00264D"/>
</g>
</svg>
