<svg width="44" height="44" viewBox="0 0 44 44" fill="none" xmlns="http://www.w3.org/2000/svg">
<g id="Help">
<g id="Group 2">
<path id="Vector" d="M22 40.8275C32.3981 40.8275 40.8275 32.3981 40.8275 22C40.8275 11.6018 32.3981 3.17236 22 3.17236C11.6018 3.17236 3.17236 11.6018 3.17236 22C3.17236 32.3981 11.6018 40.8275 22 40.8275Z" stroke="#00264D" stroke-width="4.57143" stroke-linecap="round" stroke-linejoin="round"/>
<path id="Vector_2" d="M16.9312 16.6896C16.9312 15.687 17.2284 14.707 17.7854 13.8734C18.3424 13.0398 19.1341 12.3901 20.0603 12.0065C20.9865 11.6228 22.0057 11.5224 22.989 11.718C23.9723 11.9136 24.8755 12.3964 25.5844 13.1053C26.2933 13.8142 26.7761 14.7174 26.9717 15.7007C27.1673 16.684 27.0669 17.7032 26.6832 18.6294C26.2996 19.5556 25.6499 20.3473 24.8163 20.9043C23.9827 21.4613 23.0027 21.7585 22.0001 21.7585V25.1379" stroke="#00264D" stroke-width="5.33333" stroke-linecap="round" stroke-linejoin="round"/>
<path id="Vector_3" d="M21.9998 30.207C21.4985 30.207 21.0085 30.3557 20.5917 30.6342C20.1749 30.9127 19.8501 31.3085 19.6583 31.7716C19.4664 32.2347 19.4162 32.7443 19.514 33.236C19.6118 33.7276 19.8532 34.1792 20.2077 34.5337C20.5621 34.8881 21.0137 35.1295 21.5054 35.2273C21.997 35.3251 22.5066 35.2749 22.9697 35.0831C23.4328 34.8912 23.8287 34.5664 24.1072 34.1496C24.3857 33.7328 24.5343 33.2428 24.5343 32.7415C24.5255 32.0721 24.2557 31.4325 23.7823 30.959C23.3089 30.4856 22.6693 30.2158 21.9998 30.207Z" fill="#00264D"/>
</g>
</g>
</svg>
