<svg width="46" height="46" viewBox="0 0 46 46" fill="none" xmlns="http://www.w3.org/2000/svg">
<g id="Sign in">
<g id="Group">
<path id="Vector" d="M23 6.229C22.6188 6.229 22.2531 6.38045 21.9835 6.65004C21.714 6.91962 21.5625 7.28526 21.5625 7.6665C21.5625 8.04775 21.714 8.41339 21.9835 8.68297C22.2531 8.95255 22.6188 9.104 23 9.104C24.8248 9.104 26.6318 9.46343 28.3177 10.1618C30.0036 10.8601 31.5355 11.8837 32.8258 13.174C34.1162 14.4643 35.1397 15.9962 35.8381 17.6821C36.5364 19.3681 36.8958 21.175 36.8958 22.9998C36.8958 24.8247 36.5364 26.6316 35.8381 28.3175C35.1397 30.0035 34.1162 31.5353 32.8258 32.8257C31.5355 34.116 30.0036 35.1396 28.3177 35.8379C26.6318 36.5362 24.8248 36.8957 23 36.8957C22.6188 36.8957 22.2531 37.0471 21.9835 37.3167C21.714 37.5863 21.5625 37.9519 21.5625 38.3332C21.5625 38.7144 21.714 39.0801 21.9835 39.3496C22.2531 39.6192 22.6188 39.7707 23 39.7707C27.4479 39.7707 31.7136 38.0037 34.8588 34.8586C38.0039 31.7135 39.7708 27.4477 39.7708 22.9998C39.7708 18.5519 38.0039 14.2862 34.8588 11.1411C31.7136 7.99593 27.4479 6.229 23 6.229Z" fill="#00264D" stroke="#00264D" stroke-width="1.8"/>
<path id="Vector_2" d="M20.0673 18.2656C19.8134 17.9931 19.6752 17.6327 19.6818 17.2603C19.6883 16.8879 19.8392 16.5326 20.1026 16.2692C20.3659 16.0058 20.7213 15.8549 21.0937 15.8484C21.4661 15.8418 21.8265 15.98 22.099 16.234L27.849 21.984C28.1182 22.2535 28.2694 22.6188 28.2694 22.9998C28.2694 23.3807 28.1182 23.7461 27.849 24.0156L22.099 29.7656C21.9674 29.9069 21.8087 30.0201 21.6324 30.0987C21.456 30.1773 21.2657 30.2195 21.0727 30.2229C20.8797 30.2263 20.6879 30.1908 20.5089 30.1185C20.3299 30.0462 20.1674 29.9386 20.0308 29.8021C19.8943 29.6656 19.7867 29.503 19.7144 29.324C19.6421 29.145 19.6066 28.9533 19.61 28.7603C19.6134 28.5673 19.6557 28.3769 19.7343 28.2006C19.8128 28.0243 19.9261 27.8656 20.0673 27.734L23.364 24.4373H7.6665C7.28526 24.4373 6.91962 24.2858 6.65004 24.0163C6.38045 23.7467 6.229 23.381 6.229 22.9998C6.229 22.6185 6.38045 22.2529 6.65004 21.9833C6.91962 21.7137 7.28526 21.5623 7.6665 21.5623H23.364L20.0673 18.2656Z" fill="#00264D" stroke="#00264D" stroke-width="1.8"/>
</g>
</g>
</svg>
