<svg width="99" height="99" viewBox="0 0 99 99" fill="none" xmlns="http://www.w3.org/2000/svg">
<g id="Ticket" filter="url(#filter0_d_409_1238)">
<path id="Vector" d="M69.161 8.34198L65.1093 4.29023C62.7497 6.64978 58.8887 6.64978 56.5291 4.29022L4.28532 56.534L4.42356 56.6722C6.64488 59.0461 6.60197 62.7975 4.29009 65.1094L8.34185 69.1612C10.6061 68.0696 13.4089 68.4509 15.2823 70.3243C17.1556 72.1976 17.5322 75.0052 16.4454 77.2647L20.7402 81.5595C23.0044 80.468 25.8073 80.8493 27.6806 82.7226C29.5492 84.5912 29.9305 87.4036 28.8437 89.6631L32.8907 93.71C35.2121 91.3886 38.9445 91.3457 41.3231 93.5813L41.4614 93.7196L93.7051 41.4758L93.7004 41.471C91.3313 39.1019 91.3361 35.2647 93.7051 32.8956L89.6534 28.8438C87.3892 29.9354 84.5863 29.5541 82.713 27.6808C80.8444 25.8122 80.4631 22.9998 81.5499 20.7403L77.2598 16.4503C74.9956 17.5418 72.1927 17.1605 70.3194 15.2872C68.446 13.4138 68.0695 10.6062 69.161 8.34198Z" fill="#004A9B"/>
<path id="Vector_2" d="M24.9348 45.1413L53.5354 73.742M44.7503 24.9636L73.3509 53.5642M84.2525 42.6626L42.6576 84.2575C41.9045 85.0106 40.6747 85.0106 39.9215 84.2575L14.057 58.393C13.3039 57.6398 13.3039 56.41 14.057 55.6568L55.6471 14.0668C56.4002 13.3136 57.6301 13.3136 58.3832 14.0668L84.2429 39.9265C84.4232 40.1055 84.5665 40.3183 84.6645 40.5527C84.7626 40.7871 84.8135 41.0385 84.8144 41.2926C84.8153 41.5467 84.7661 41.7984 84.6697 42.0335C84.5733 42.2686 84.4315 42.4824 84.2525 42.6626Z" stroke="#6D98FB" stroke-width="3.43697" stroke-miterlimit="10"/>
</g>
<defs>
<filter id="filter0_d_409_1238" x="4.28516" y="4.29004" width="94.678" height="94.6878" filterUnits="userSpaceOnUse" color-interpolation-filters="sRGB">
<feFlood flood-opacity="0" result="BackgroundImageFix"/>
<feColorMatrix in="SourceAlpha" type="matrix" values="0 0 0 0 0 0 0 0 0 0 0 0 0 0 0 0 0 0 127 0" result="hardAlpha"/>
<feOffset dx="5.25811" dy="5.25811"/>
<feComposite in2="hardAlpha" operator="out"/>
<feColorMatrix type="matrix" values="0 0 0 0 0 0 0 0 0 0.14902 0 0 0 0 0.301961 0 0 0 1 0"/>
<feBlend mode="normal" in2="BackgroundImageFix" result="effect1_dropShadow_409_1238"/>
<feBlend mode="normal" in="SourceGraphic" in2="effect1_dropShadow_409_1238" result="shape"/>
</filter>
</defs>
</svg>
