<svg width="353" height="216" viewBox="0 0 353 216" fill="none" xmlns="http://www.w3.org/2000/svg">
<path fill-rule="evenodd" clip-rule="evenodd" d="M352.933 48.4076V24.8953C339.24 24.8953 328.038 13.6924 328.038 0H24.8677V0.802185C24.4251 14.135 13.4158 24.8953 0 24.8953V48.4076C9.73684 51.81 16.7629 61.0489 16.7629 71.9199C16.7629 82.7908 9.70918 92.0298 0 95.4321V120.355C9.73684 123.757 16.7629 132.996 16.7629 143.867C16.7629 154.711 9.70918 163.977 0 167.38V190.864C13.4711 190.864 24.4251 201.569 24.84 214.957V215.76H328.01V215.732C328.01 201.984 339.157 190.864 352.905 190.864V167.352C343.168 163.95 336.142 154.711 336.142 143.84C336.142 132.996 343.196 123.73 352.905 120.327V95.4321C343.168 92.0298 336.142 82.7908 336.142 71.9199C336.142 61.0489 343.196 51.81 352.933 48.4076ZM81.7305 135.841H101.538V82.1695H81.7305V60.3228H146.986V82.1695H127.164V135.856H146.972V157.702H81.7305V135.841ZM189.073 99.3198L240.927 157.687V157.702H269.196V60.322H243.556V118.99L191.989 60.322H163.146V157.687H189.073V99.3198ZM67.6108 175.798C60.1415 175.798 54.8269 174.251 51.6668 171.145C48.5067 168.038 46.9266 162.927 46.9266 155.798V126.192C46.9266 121.854 45.9786 118.747 44.0826 116.886C42.1865 115.025 39.8021 114.094 36.958 114.094H32.8499V104.216H36.958C39.8021 104.216 42.1722 103.286 44.0682 101.41C45.9643 99.5348 46.9266 96.4281 46.9266 92.0614V62.3122C46.9266 55.1541 48.5067 50.0145 51.6668 46.8936C54.8269 43.7726 60.1415 42.2264 67.6108 42.2264H73.457V52.1047H69.8229C63.8187 52.1047 60.2852 53.4504 59.2366 56.1419C58.6046 57.7024 58.2886 60.3938 58.2886 64.2306V93.4647C58.2886 100.723 54.9705 105.906 48.3487 109.012C54.9705 112.119 58.2886 117.301 58.2886 124.56V153.794C58.2886 159.606 59.294 163.171 61.2906 164.516C62.6552 165.447 65.4993 165.919 69.8229 165.919H73.457V175.798H67.6108ZM313.997 114.094H317.946V104.216H313.997C311.152 104.216 308.797 103.286 306.901 101.41C305.004 99.5348 304.057 96.4281 304.057 92.0614V62.3122C304.057 55.1541 302.476 50.0145 299.316 46.8936C296.142 43.7869 290.827 42.2264 283.344 42.2264H277.339V52.1047H281.146C285.369 52.1047 288.17 52.5771 289.549 53.5077C291.66 54.9536 292.723 58.5327 292.723 64.2306V93.4647C292.723 100.723 296.027 105.906 302.634 109.012C296.027 112.119 292.723 117.301 292.723 124.56V153.794C292.723 158.976 291.976 162.297 290.497 163.743C289.017 165.189 285.901 165.919 281.146 165.919H277.339V175.798H283.344C290.827 175.798 296.156 174.251 299.316 171.145C302.476 168.053 304.057 162.927 304.057 155.798V126.192C304.057 121.854 305.004 118.747 306.901 116.886C308.782 115.025 311.152 114.094 313.997 114.094Z" fill="#6D98FB" fill-opacity="0.5"/>
</svg>
