<svg width="83" height="83" viewBox="0 0 83 83" fill="none" xmlns="http://www.w3.org/2000/svg">
<circle cx="41.5" cy="41.5" r="41.5" fill="#D82F1E"/>
<path d="M52.0002 24L52.0002 60C51.9991 60.3645 51.8985 60.7218 51.7095 61.0334C51.5204 61.345 51.2499 61.5991 50.9271 61.7684C50.6043 61.9377 50.2415 62.0158 49.8776 61.9942C49.5138 61.9726 49.1627 61.8523 48.8622 61.646L22.8622 43.646C21.7842 42.9 21.7842 41.104 22.8622 40.356L48.8622 22.356C49.1621 22.1477 49.5133 22.0255 49.8778 22.0027C50.2423 21.98 50.606 22.0576 50.9294 22.227C51.2529 22.3965 51.5237 22.6514 51.7125 22.9639C51.9013 23.2765 52.0008 23.6348 52.0002 24Z" fill="#E6A352"/>
</svg>
