<svg width="469" height="26" viewBox="0 0 469 26" fill="none" xmlns="http://www.w3.org/2000/svg">
<path d="M23 24.5H24.5V23V9C24.5 4.85786 21.1421 1.5 17 1.5H9C4.85786 1.5 1.5 4.85786 1.5 9V23V24.5H3H23Z" stroke="#003877" stroke-width="3"/>
<path d="M41.3127 7.77748C42.4918 7.77748 43.5261 8.00793 44.4158 8.46884C45.3162 8.92975 46.0075 9.58895 46.4899 10.4464C46.9829 11.2932 47.2295 12.2794 47.2295 13.4048C47.2295 14.5303 46.9829 15.5164 46.4899 16.3632C46.0075 17.1993 45.3162 17.8477 44.4158 18.3086C43.5261 18.7695 42.4918 19 41.3127 19H37.3897V7.77748H41.3127ZM41.2323 17.0867C42.4114 17.0867 43.3225 16.7651 43.9656 16.122C44.6087 15.4789 44.9303 14.5732 44.9303 13.4048C44.9303 12.2365 44.6087 11.3254 43.9656 10.6715C43.3225 10.007 42.4114 9.6747 41.2323 9.6747H39.6406V17.0867H41.2323ZM50.8599 9.03157C50.4633 9.03157 50.131 8.90831 49.863 8.66178C49.6058 8.40453 49.4771 8.08832 49.4771 7.71317C49.4771 7.33801 49.6058 7.02717 49.863 6.78064C50.131 6.52339 50.4633 6.39476 50.8599 6.39476C51.2564 6.39476 51.5834 6.52339 51.8406 6.78064C52.1086 7.02717 52.2426 7.33801 52.2426 7.71317C52.2426 8.08832 52.1086 8.40453 51.8406 8.66178C51.5834 8.90831 51.2564 9.03157 50.8599 9.03157ZM51.9692 10.0927V19H49.7183V10.0927H51.9692ZM58.4056 19.1447C57.6768 19.1447 57.0229 19.0161 56.4441 18.7588C55.8653 18.4909 55.4044 18.1318 55.0614 17.6816C54.7291 17.2314 54.5469 16.733 54.5147 16.1863H56.7817C56.8246 16.5293 56.9908 16.8134 57.2802 17.0385C57.5803 17.2636 57.9501 17.3761 58.3896 17.3761C58.8183 17.3761 59.1506 17.2904 59.3864 17.1189C59.6329 16.9474 59.7562 16.7276 59.7562 16.4597C59.7562 16.1703 59.6061 15.9559 59.306 15.8165C59.0166 15.6665 58.5503 15.5057 57.9072 15.3342C57.2426 15.1734 56.696 15.0073 56.2672 14.8358C55.8492 14.6643 55.4848 14.4017 55.1739 14.0479C54.8738 13.6942 54.7237 13.2172 54.7237 12.617C54.7237 12.1239 54.8631 11.6737 55.1418 11.2664C55.4312 10.8591 55.8385 10.5376 56.3637 10.3017C56.8996 10.0659 57.5267 9.94803 58.2449 9.94803C59.306 9.94803 60.1528 10.216 60.7852 10.7519C61.4176 11.2771 61.766 11.9899 61.8303 12.8903H59.6758C59.6436 12.5366 59.4936 12.2579 59.2256 12.0543C58.9684 11.8399 58.62 11.7327 58.1805 11.7327C57.7732 11.7327 57.457 11.8077 57.2319 11.9578C57.0176 12.1079 56.9104 12.3169 56.9104 12.5848C56.9104 12.885 57.0604 13.1154 57.3606 13.2762C57.6607 13.4263 58.1269 13.5817 58.7594 13.7425C59.4025 13.9032 59.9331 14.0694 60.3511 14.2409C60.7691 14.4124 61.1282 14.6803 61.4283 15.0448C61.7392 15.3985 61.8999 15.8701 61.9107 16.4597C61.9107 16.9742 61.766 17.4351 61.4766 17.8424C61.1979 18.2497 60.7906 18.5713 60.2546 18.8071C59.7294 19.0322 59.1131 19.1447 58.4056 19.1447ZM66.8132 11.379C67.1026 10.9717 67.4992 10.634 68.003 10.3661C68.5175 10.0874 69.1017 9.94803 69.7555 9.94803C70.5165 9.94803 71.2025 10.1356 71.8135 10.5108C72.4352 10.8859 72.9229 11.4219 73.2766 12.1186C73.6411 12.8046 73.8233 13.6031 73.8233 14.5142C73.8233 15.4253 73.6411 16.2346 73.2766 16.942C72.9229 17.6387 72.4352 18.18 71.8135 18.5659C71.2025 18.9518 70.5165 19.1447 69.7555 19.1447C69.1017 19.1447 68.5229 19.0107 68.0191 18.7428C67.526 18.4748 67.1241 18.1371 66.8132 17.7298V23.2446H64.5623V10.0927H66.8132V11.379ZM71.5241 14.5142C71.5241 13.9783 71.4116 13.5174 71.1865 13.1315C70.9721 12.7349 70.6827 12.4348 70.3183 12.2311C69.9645 12.0275 69.5787 11.9256 69.1606 11.9256C68.7533 11.9256 68.3674 12.0328 68.003 12.2472C67.6493 12.4509 67.3599 12.751 67.1348 13.1476C66.9204 13.5442 66.8132 14.0104 66.8132 14.5464C66.8132 15.0823 66.9204 15.5486 67.1348 15.9452C67.3599 16.3418 67.6493 16.6472 68.003 16.8616C68.3674 17.0653 68.7533 17.1671 69.1606 17.1671C69.5787 17.1671 69.9645 17.0599 70.3183 16.8455C70.6827 16.6312 70.9721 16.3257 71.1865 15.9291C71.4116 15.5325 71.5241 15.0609 71.5241 14.5142ZM80.2181 19.1447C79.3606 19.1447 78.5888 18.9571 77.9028 18.582C77.2168 18.1961 76.6756 17.6548 76.279 16.9581C75.8931 16.2614 75.7001 15.4575 75.7001 14.5464C75.7001 13.6353 75.8984 12.8314 76.295 12.1346C76.7023 11.4379 77.2544 10.902 77.9511 10.5268C78.6478 10.141 79.4249 9.94803 80.2824 9.94803C81.1399 9.94803 81.917 10.141 82.6137 10.5268C83.3105 10.902 83.8571 11.4379 84.2537 12.1346C84.661 12.8314 84.8647 13.6353 84.8647 14.5464C84.8647 15.4575 84.6557 16.2614 84.2376 16.9581C83.8303 17.6548 83.2729 18.1961 82.5655 18.582C81.8688 18.9571 81.0863 19.1447 80.2181 19.1447ZM80.2181 17.1832C80.6254 17.1832 81.0059 17.0867 81.3596 16.8938C81.7241 16.6901 82.0135 16.39 82.2279 15.9934C82.4422 15.5968 82.5494 15.1145 82.5494 14.5464C82.5494 13.6996 82.3243 13.0511 81.8741 12.6009C81.4347 12.14 80.8934 11.9096 80.2503 11.9096C79.6071 11.9096 79.0658 12.14 78.6264 12.6009C78.1976 13.0511 77.9832 13.6996 77.9832 14.5464C77.9832 15.3931 78.1923 16.047 78.6103 16.5079C79.039 16.9581 79.575 17.1832 80.2181 17.1832ZM92.2557 9.9641C93.3169 9.9641 94.1743 10.3017 94.8282 10.977C95.482 11.6416 95.809 12.5741 95.809 13.7746V19H93.558V14.0801C93.558 13.3727 93.3812 12.8314 93.0274 12.4562C92.6737 12.0703 92.1914 11.8774 91.5804 11.8774C90.9587 11.8774 90.4657 12.0703 90.1012 12.4562C89.7475 12.8314 89.5707 13.3727 89.5707 14.0801V19H87.3197V10.0927H89.5707V11.2021C89.8708 10.8162 90.2513 10.5161 90.7122 10.3017C91.1838 10.0767 91.6983 9.9641 92.2557 9.9641ZM101.101 10.0927V19H98.8499V10.0927H101.101ZM101.728 7.77748L98.0299 9.46568V7.85787L101.728 5.94458V7.77748ZM107.935 16.9259L110.186 10.0927H112.581L109.285 19H106.552L103.272 10.0927H105.684L107.935 16.9259ZM122.93 14.3534C122.93 14.675 122.908 14.9644 122.865 15.2216H116.354C116.407 15.8648 116.632 16.3685 117.029 16.733C117.426 17.0974 117.913 17.2796 118.492 17.2796C119.328 17.2796 119.923 16.9206 120.277 16.2024H122.704C122.447 17.0599 121.954 17.7673 121.225 18.3247C120.496 18.8714 119.601 19.1447 118.54 19.1447C117.683 19.1447 116.911 18.9571 116.225 18.582C115.55 18.1961 115.019 17.6548 114.633 16.9581C114.258 16.2614 114.071 15.4575 114.071 14.5464C114.071 13.6246 114.258 12.8153 114.633 12.1186C115.008 11.4219 115.534 10.8859 116.209 10.5108C116.884 10.1356 117.661 9.94803 118.54 9.94803C119.387 9.94803 120.143 10.1302 120.807 10.4947C121.483 10.8591 122.002 11.379 122.367 12.0543C122.742 12.7188 122.93 13.4852 122.93 14.3534ZM120.598 13.7103C120.588 13.1315 120.379 12.6706 119.971 12.3276C119.564 11.9739 119.065 11.797 118.476 11.797C117.919 11.797 117.447 11.9685 117.061 12.3115C116.686 12.6438 116.455 13.1101 116.37 13.7103H120.598ZM127.627 7.1022V19H125.376V7.1022H127.627Z" fill="#C6C6C6"/>
<path d="M359 24.5H360.5V23V9C360.5 4.85786 357.142 1.5 353 1.5H345C340.858 1.5 337.5 4.85786 337.5 9V23V24.5H339H359Z" fill="#2B3955" stroke="#2B3955" stroke-width="3"/>
<path d="M372.319 13.3727C372.319 12.2686 372.565 11.2825 373.058 10.4143C373.562 9.53535 374.243 8.85471 375.1 8.37237C375.968 7.87931 376.938 7.63278 378.01 7.63278C379.264 7.63278 380.363 7.95434 381.306 8.59747C382.25 9.24059 382.909 10.1302 383.284 11.2664H380.695C380.438 10.7305 380.074 10.3285 379.602 10.0606C379.141 9.7926 378.605 9.65862 377.994 9.65862C377.34 9.65862 376.756 9.81404 376.242 10.1249C375.738 10.425 375.341 10.8538 375.052 11.4111C374.773 11.9685 374.634 12.6224 374.634 13.3727C374.634 14.1123 374.773 14.7661 375.052 15.3342C375.341 15.8916 375.738 16.3257 376.242 16.6365C376.756 16.9366 377.34 17.0867 377.994 17.0867C378.605 17.0867 379.141 16.9527 379.602 16.6848C380.074 16.4061 380.438 15.9988 380.695 15.4628H383.284C382.909 16.6097 382.25 17.5047 381.306 18.1479C380.374 18.7803 379.275 19.0965 378.01 19.0965C376.938 19.0965 375.968 18.8553 375.1 18.373C374.243 17.8799 373.562 17.1993 373.058 16.331C372.565 15.4628 372.319 14.4767 372.319 13.3727ZM389.966 19.1447C389.108 19.1447 388.336 18.9571 387.65 18.582C386.964 18.1961 386.423 17.6548 386.026 16.9581C385.641 16.2614 385.448 15.4575 385.448 14.5464C385.448 13.6353 385.646 12.8314 386.043 12.1346C386.45 11.4379 387.002 10.902 387.699 10.5268C388.395 10.141 389.172 9.94803 390.03 9.94803C390.887 9.94803 391.664 10.141 392.361 10.5268C393.058 10.902 393.605 11.4379 394.001 12.1346C394.408 12.8314 394.612 13.6353 394.612 14.5464C394.612 15.4575 394.403 16.2614 393.985 16.9581C393.578 17.6548 393.02 18.1961 392.313 18.582C391.616 18.9571 390.834 19.1447 389.966 19.1447ZM389.966 17.1832C390.373 17.1832 390.753 17.0867 391.107 16.8938C391.472 16.6901 391.761 16.39 391.975 15.9934C392.19 15.5968 392.297 15.1145 392.297 14.5464C392.297 13.6996 392.072 13.0511 391.622 12.6009C391.182 12.14 390.641 11.9096 389.998 11.9096C389.355 11.9096 388.813 12.14 388.374 12.6009C387.945 13.0511 387.731 13.6996 387.731 14.5464C387.731 15.3931 387.94 16.047 388.358 16.5079C388.787 16.9581 389.322 17.1832 389.966 17.1832ZM408.129 9.9641C409.222 9.9641 410.101 10.3017 410.766 10.977C411.441 11.6416 411.779 12.5741 411.779 13.7746V19H409.528V14.0801C409.528 13.3834 409.351 12.8528 408.997 12.4884C408.643 12.1132 408.161 11.9256 407.55 11.9256C406.939 11.9256 406.451 12.1132 406.087 12.4884C405.733 12.8528 405.556 13.3834 405.556 14.0801V19H403.306V14.0801C403.306 13.3834 403.129 12.8528 402.775 12.4884C402.421 12.1132 401.939 11.9256 401.328 11.9256C400.706 11.9256 400.213 12.1132 399.849 12.4884C399.495 12.8528 399.318 13.3834 399.318 14.0801V19H397.067V10.0927H399.318V11.17C399.608 10.7948 399.977 10.5 400.428 10.2857C400.888 10.0713 401.392 9.9641 401.939 9.9641C402.636 9.9641 403.257 10.1142 403.804 10.4143C404.351 10.7037 404.774 11.1217 405.074 11.6684C405.363 11.1539 405.782 10.7412 406.328 10.4304C406.886 10.1195 407.486 9.9641 408.129 9.9641ZM416.97 11.379C417.259 10.9717 417.656 10.634 418.159 10.3661C418.674 10.0874 419.258 9.94803 419.912 9.94803C420.673 9.94803 421.359 10.1356 421.97 10.5108C422.591 10.8859 423.079 11.4219 423.433 12.1186C423.797 12.8046 423.98 13.6031 423.98 14.5142C423.98 15.4253 423.797 16.2346 423.433 16.942C423.079 17.6387 422.591 18.18 421.97 18.5659C421.359 18.9518 420.673 19.1447 419.912 19.1447C419.258 19.1447 418.679 19.0107 418.175 18.7428C417.682 18.4748 417.28 18.1371 416.97 17.7298V23.2446H414.719V10.0927H416.97V11.379ZM421.68 14.5142C421.68 13.9783 421.568 13.5174 421.343 13.1315C421.128 12.7349 420.839 12.4348 420.475 12.2311C420.121 12.0275 419.735 11.9256 419.317 11.9256C418.91 11.9256 418.524 12.0328 418.159 12.2472C417.806 12.4509 417.516 12.751 417.291 13.1476C417.077 13.5442 416.97 14.0104 416.97 14.5464C416.97 15.0823 417.077 15.5486 417.291 15.9452C417.516 16.3418 417.806 16.6472 418.159 16.8616C418.524 17.0653 418.91 17.1671 419.317 17.1671C419.735 17.1671 420.121 17.0599 420.475 16.8455C420.839 16.6312 421.128 16.3257 421.343 15.9291C421.568 15.5325 421.68 15.0609 421.68 14.5142ZM428.67 11.4754C428.959 11.0038 429.335 10.634 429.796 10.3661C430.267 10.0981 430.803 9.9641 431.403 9.9641V12.3276H430.808C430.101 12.3276 429.565 12.4937 429.201 12.826C428.847 13.1583 428.67 13.7371 428.67 14.5624V19H426.419V10.0927H428.67V11.4754ZM433.145 14.5142C433.145 13.6138 433.321 12.8153 433.675 12.1186C434.04 11.4219 434.527 10.8859 435.138 10.5108C435.76 10.1356 436.451 9.94803 437.212 9.94803C437.877 9.94803 438.456 10.082 438.949 10.35C439.453 10.6179 439.855 10.9556 440.155 11.3629V10.0927H442.422V19H440.155V17.6977C439.865 18.1157 439.463 18.4641 438.949 18.7428C438.445 19.0107 437.861 19.1447 437.196 19.1447C436.446 19.1447 435.76 18.9518 435.138 18.5659C434.527 18.18 434.04 17.6387 433.675 16.942C433.321 16.2346 433.145 15.4253 433.145 14.5142ZM440.155 14.5464C440.155 13.9997 440.047 13.5334 439.833 13.1476C439.619 12.751 439.329 12.4509 438.965 12.2472C438.6 12.0328 438.209 11.9256 437.791 11.9256C437.373 11.9256 436.987 12.0275 436.634 12.2311C436.28 12.4348 435.99 12.7349 435.765 13.1315C435.551 13.5174 435.444 13.9783 435.444 14.5142C435.444 15.0501 435.551 15.5218 435.765 15.9291C435.99 16.3257 436.28 16.6312 436.634 16.8455C436.998 17.0599 437.384 17.1671 437.791 17.1671C438.209 17.1671 438.6 17.0653 438.965 16.8616C439.329 16.6472 439.619 16.3471 439.833 15.9612C440.047 15.5646 440.155 15.093 440.155 14.5464ZM444.845 14.5142C444.845 13.6138 445.022 12.8153 445.376 12.1186C445.74 11.4219 446.233 10.8859 446.855 10.5108C447.477 10.1356 448.168 9.94803 448.929 9.94803C449.508 9.94803 450.06 10.0767 450.585 10.3339C451.11 10.5804 451.528 10.9127 451.839 11.3307V7.1022H454.122V19H451.839V17.6816C451.56 18.1211 451.169 18.4748 450.665 18.7428C450.162 19.0107 449.577 19.1447 448.913 19.1447C448.163 19.1447 447.477 18.9518 446.855 18.5659C446.233 18.18 445.74 17.6387 445.376 16.942C445.022 16.2346 444.845 15.4253 444.845 14.5142ZM451.855 14.5464C451.855 13.9997 451.748 13.5334 451.534 13.1476C451.319 12.751 451.03 12.4509 450.665 12.2472C450.301 12.0328 449.91 11.9256 449.492 11.9256C449.074 11.9256 448.688 12.0275 448.334 12.2311C447.98 12.4348 447.691 12.7349 447.466 13.1315C447.252 13.5174 447.144 13.9783 447.144 14.5142C447.144 15.0501 447.252 15.5218 447.466 15.9291C447.691 16.3257 447.98 16.6312 448.334 16.8455C448.699 17.0599 449.084 17.1671 449.492 17.1671C449.91 17.1671 450.301 17.0653 450.665 16.8616C451.03 16.6472 451.319 16.3471 451.534 15.9612C451.748 15.5646 451.855 15.093 451.855 14.5464ZM461.08 19.1447C460.222 19.1447 459.451 18.9571 458.765 18.582C458.079 18.1961 457.537 17.6548 457.141 16.9581C456.755 16.2614 456.562 15.4575 456.562 14.5464C456.562 13.6353 456.76 12.8314 457.157 12.1346C457.564 11.4379 458.116 10.902 458.813 10.5268C459.509 10.141 460.287 9.94803 461.144 9.94803C462.002 9.94803 462.779 10.141 463.475 10.5268C464.172 10.902 464.719 11.4379 465.115 12.1346C465.523 12.8314 465.726 13.6353 465.726 14.5464C465.726 15.4575 465.517 16.2614 465.099 16.9581C464.692 17.6548 464.135 18.1961 463.427 18.582C462.73 18.9571 461.948 19.1447 461.08 19.1447ZM461.08 17.1832C461.487 17.1832 461.868 17.0867 462.221 16.8938C462.586 16.6901 462.875 16.39 463.09 15.9934C463.304 15.5968 463.411 15.1145 463.411 14.5464C463.411 13.6996 463.186 13.0511 462.736 12.6009C462.296 12.14 461.755 11.9096 461.112 11.9096C460.469 11.9096 459.928 12.14 459.488 12.6009C459.059 13.0511 458.845 13.6996 458.845 14.5464C458.845 15.3931 459.054 16.047 459.472 16.5079C459.901 16.9581 460.437 17.1832 461.08 17.1832Z" fill="#C6C6C6"/>
<path d="M185 24.5H186.5V23V9C186.5 4.85786 183.142 1.5 179 1.5H171C166.858 1.5 163.5 4.85786 163.5 9V23V24.5H165H185Z" fill="#CC8000" stroke="#CC8000" stroke-width="3"/>
<path d="M201.984 19.1125C201.202 19.1125 200.494 18.9786 199.862 18.7106C199.24 18.4426 198.747 18.0568 198.383 17.553C198.018 17.0492 197.831 16.4543 197.82 15.7683H200.232C200.264 16.2292 200.425 16.5936 200.714 16.8616C201.014 17.1296 201.421 17.2636 201.936 17.2636C202.461 17.2636 202.874 17.1403 203.174 16.8938C203.474 16.6365 203.624 16.3042 203.624 15.8969C203.624 15.5646 203.522 15.2913 203.319 15.0769C203.115 14.8626 202.858 14.6964 202.547 14.5785C202.247 14.4499 201.829 14.3106 201.293 14.1605C200.564 13.9461 199.969 13.7371 199.508 13.5334C199.058 13.3191 198.667 13.0029 198.334 12.5848C198.013 12.1561 197.852 11.588 197.852 10.8806C197.852 10.216 198.018 9.63718 198.351 9.14412C198.683 8.65106 199.149 8.2759 199.749 8.01865C200.35 7.75069 201.036 7.6167 201.807 7.6167C202.965 7.6167 203.903 7.90075 204.621 8.46884C205.35 9.02621 205.752 9.80868 205.827 10.8162H203.351C203.329 10.4304 203.163 10.1142 202.852 9.86764C202.552 9.61039 202.15 9.48176 201.647 9.48176C201.207 9.48176 200.853 9.59431 200.585 9.8194C200.328 10.0445 200.2 10.3714 200.2 10.8002C200.2 11.1003 200.296 11.3522 200.489 11.5558C200.693 11.7488 200.939 11.9096 201.229 12.0382C201.529 12.1561 201.947 12.2954 202.483 12.4562C203.212 12.6706 203.806 12.885 204.267 13.0993C204.728 13.3137 205.125 13.6353 205.457 14.064C205.789 14.4928 205.956 15.0555 205.956 15.7522C205.956 16.3525 205.8 16.9098 205.489 17.4243C205.178 17.9388 204.723 18.3515 204.123 18.6624C203.522 18.9625 202.81 19.1125 201.984 19.1125ZM216.991 14.3534C216.991 14.675 216.97 14.9644 216.927 15.2216H210.415C210.469 15.8648 210.694 16.3685 211.09 16.733C211.487 17.0974 211.975 17.2796 212.554 17.2796C213.39 17.2796 213.985 16.9206 214.338 16.2024H216.766C216.509 17.0599 216.016 17.7673 215.287 18.3247C214.558 18.8714 213.663 19.1447 212.602 19.1447C211.744 19.1447 210.973 18.9571 210.287 18.582C209.611 18.1961 209.081 17.6548 208.695 16.9581C208.32 16.2614 208.132 15.4575 208.132 14.5464C208.132 13.6246 208.32 12.8153 208.695 12.1186C209.07 11.4219 209.595 10.8859 210.27 10.5108C210.946 10.1356 211.723 9.94803 212.602 9.94803C213.449 9.94803 214.204 10.1302 214.869 10.4947C215.544 10.8591 216.064 11.379 216.428 12.0543C216.804 12.7188 216.991 13.4852 216.991 14.3534ZM214.66 13.7103C214.649 13.1315 214.44 12.6706 214.033 12.3276C213.625 11.9739 213.127 11.797 212.537 11.797C211.98 11.797 211.508 11.9685 211.123 12.3115C210.747 12.6438 210.517 13.1101 210.431 13.7103H214.66ZM221.689 7.1022V19H219.438V7.1022H221.689ZM232.997 14.3534C232.997 14.675 232.976 14.9644 232.933 15.2216H226.421C226.475 15.8648 226.7 16.3685 227.096 16.733C227.493 17.0974 227.981 17.2796 228.559 17.2796C229.396 17.2796 229.99 16.9206 230.344 16.2024H232.772C232.515 17.0599 232.022 17.7673 231.293 18.3247C230.564 18.8714 229.669 19.1447 228.608 19.1447C227.75 19.1447 226.978 18.9571 226.292 18.582C225.617 18.1961 225.087 17.6548 224.701 16.9581C224.326 16.2614 224.138 15.4575 224.138 14.5464C224.138 13.6246 224.326 12.8153 224.701 12.1186C225.076 11.4219 225.601 10.8859 226.276 10.5108C226.952 10.1356 227.729 9.94803 228.608 9.94803C229.454 9.94803 230.21 10.1302 230.875 10.4947C231.55 10.8591 232.07 11.379 232.434 12.0543C232.809 12.7188 232.997 13.4852 232.997 14.3534ZM230.666 13.7103C230.655 13.1315 230.446 12.6706 230.039 12.3276C229.631 11.9739 229.133 11.797 228.543 11.797C227.986 11.797 227.514 11.9685 227.128 12.3115C226.753 12.6438 226.523 13.1101 226.437 13.7103H230.666ZM234.865 14.5464C234.865 13.6246 235.053 12.8206 235.428 12.1346C235.803 11.4379 236.323 10.902 236.987 10.5268C237.652 10.141 238.413 9.94803 239.27 9.94803C240.375 9.94803 241.286 10.2267 242.004 10.7841C242.733 11.3307 243.22 12.1025 243.467 13.0993H241.039C240.91 12.7135 240.691 12.4133 240.38 12.199C240.08 11.9739 239.705 11.8613 239.254 11.8613C238.611 11.8613 238.102 12.0971 237.727 12.5688C237.352 13.0297 237.164 13.6889 237.164 14.5464C237.164 15.3931 237.352 16.0523 237.727 16.524C238.102 16.9849 238.611 17.2153 239.254 17.2153C240.165 17.2153 240.76 16.808 241.039 15.9934H243.467C243.22 16.9581 242.733 17.7245 242.004 18.2926C241.275 18.8607 240.364 19.1447 239.27 19.1447C238.413 19.1447 237.652 18.9571 236.987 18.582C236.323 18.1961 235.803 17.6602 235.428 16.9742C235.053 16.2774 234.865 15.4682 234.865 14.5464ZM247.061 9.03157C246.665 9.03157 246.332 8.90831 246.064 8.66178C245.807 8.40453 245.679 8.08832 245.679 7.71317C245.679 7.33801 245.807 7.02717 246.064 6.78064C246.332 6.52339 246.665 6.39476 247.061 6.39476C247.458 6.39476 247.785 6.52339 248.042 6.78064C248.31 7.02717 248.444 7.33801 248.444 7.71317C248.444 8.08832 248.31 8.40453 248.042 8.66178C247.785 8.90831 247.458 9.03157 247.061 9.03157ZM248.171 10.0927V19H245.92V10.0927H248.171ZM255.154 19.1447C254.296 19.1447 253.525 18.9571 252.839 18.582C252.153 18.1961 251.611 17.6548 251.215 16.9581C250.829 16.2614 250.636 15.4575 250.636 14.5464C250.636 13.6353 250.834 12.8314 251.231 12.1346C251.638 11.4379 252.19 10.902 252.887 10.5268C253.583 10.141 254.361 9.94803 255.218 9.94803C256.076 9.94803 256.853 10.141 257.549 10.5268C258.246 10.902 258.793 11.4379 259.189 12.1346C259.597 12.8314 259.8 13.6353 259.8 14.5464C259.8 15.4575 259.591 16.2614 259.173 16.9581C258.766 17.6548 258.209 18.1961 257.501 18.582C256.804 18.9571 256.022 19.1447 255.154 19.1447ZM255.154 17.1832C255.561 17.1832 255.942 17.0867 256.295 16.8938C256.66 16.6901 256.949 16.39 257.164 15.9934C257.378 15.5968 257.485 15.1145 257.485 14.5464C257.485 13.6996 257.26 13.0511 256.81 12.6009C256.37 12.14 255.829 11.9096 255.186 11.9096C254.543 11.9096 254.001 12.14 253.562 12.6009C253.133 13.0511 252.919 13.6996 252.919 14.5464C252.919 15.3931 253.128 16.047 253.546 16.5079C253.975 16.9581 254.511 17.1832 255.154 17.1832ZM267.191 9.9641C268.253 9.9641 269.11 10.3017 269.764 10.977C270.418 11.6416 270.745 12.5741 270.745 13.7746V19H268.494V14.0801C268.494 13.3727 268.317 12.8314 267.963 12.4562C267.609 12.0703 267.127 11.8774 266.516 11.8774C265.894 11.8774 265.401 12.0703 265.037 12.4562C264.683 12.8314 264.506 13.3727 264.506 14.0801V19H262.255V10.0927H264.506V11.2021C264.806 10.8162 265.187 10.5161 265.648 10.3017C266.119 10.0767 266.634 9.9641 267.191 9.9641ZM273.11 14.5142C273.11 13.6138 273.287 12.8153 273.641 12.1186C274.005 11.4219 274.493 10.8859 275.104 10.5108C275.726 10.1356 276.417 9.94803 277.178 9.94803C277.843 9.94803 278.421 10.082 278.914 10.35C279.418 10.6179 279.82 10.9556 280.12 11.3629V10.0927H282.387V19H280.12V17.6977C279.831 18.1157 279.429 18.4641 278.914 18.7428C278.411 19.0107 277.826 19.1447 277.162 19.1447C276.412 19.1447 275.726 18.9518 275.104 18.5659C274.493 18.18 274.005 17.6387 273.641 16.942C273.287 16.2346 273.11 15.4253 273.11 14.5142ZM280.12 14.5464C280.12 13.9997 280.013 13.5334 279.799 13.1476C279.584 12.751 279.295 12.4509 278.931 12.2472C278.566 12.0328 278.175 11.9256 277.757 11.9256C277.339 11.9256 276.953 12.0275 276.599 12.2311C276.245 12.4348 275.956 12.7349 275.731 13.1315C275.517 13.5174 275.409 13.9783 275.409 14.5142C275.409 15.0501 275.517 15.5218 275.731 15.9291C275.956 16.3257 276.245 16.6312 276.599 16.8455C276.964 17.0599 277.349 17.1671 277.757 17.1671C278.175 17.1671 278.566 17.0653 278.931 16.8616C279.295 16.6472 279.584 16.3471 279.799 15.9612C280.013 15.5646 280.12 15.093 280.12 14.5464ZM284.811 14.5142C284.811 13.6138 284.988 12.8153 285.341 12.1186C285.706 11.4219 286.199 10.8859 286.821 10.5108C287.442 10.1356 288.134 9.94803 288.895 9.94803C289.473 9.94803 290.025 10.0767 290.551 10.3339C291.076 10.5804 291.494 10.9127 291.805 11.3307V7.1022H294.088V19H291.805V17.6816C291.526 18.1211 291.135 18.4748 290.631 18.7428C290.127 19.0107 289.543 19.1447 288.879 19.1447C288.128 19.1447 287.442 18.9518 286.821 18.5659C286.199 18.18 285.706 17.6387 285.341 16.942C284.988 16.2346 284.811 15.4253 284.811 14.5142ZM291.821 14.5464C291.821 13.9997 291.714 13.5334 291.499 13.1476C291.285 12.751 290.996 12.4509 290.631 12.2472C290.267 12.0328 289.875 11.9256 289.457 11.9256C289.039 11.9256 288.653 12.0275 288.3 12.2311C287.946 12.4348 287.657 12.7349 287.432 13.1315C287.217 13.5174 287.11 13.9783 287.11 14.5142C287.11 15.0501 287.217 15.5218 287.432 15.9291C287.657 16.3257 287.946 16.6312 288.3 16.8455C288.664 17.0599 289.05 17.1671 289.457 17.1671C289.875 17.1671 290.267 17.0653 290.631 16.8616C290.996 16.6472 291.285 16.3471 291.499 15.9612C291.714 15.5646 291.821 15.093 291.821 14.5464ZM301.045 19.1447C300.188 19.1447 299.416 18.9571 298.73 18.582C298.044 18.1961 297.503 17.6548 297.106 16.9581C296.72 16.2614 296.527 15.4575 296.527 14.5464C296.527 13.6353 296.726 12.8314 297.122 12.1346C297.53 11.4379 298.082 10.902 298.778 10.5268C299.475 10.141 300.252 9.94803 301.11 9.94803C301.967 9.94803 302.744 10.141 303.441 10.5268C304.138 10.902 304.684 11.4379 305.081 12.1346C305.488 12.8314 305.692 13.6353 305.692 14.5464C305.692 15.4575 305.483 16.2614 305.065 16.9581C304.658 17.6548 304.1 18.1961 303.393 18.582C302.696 18.9571 301.914 19.1447 301.045 19.1447ZM301.045 17.1832C301.453 17.1832 301.833 17.0867 302.187 16.8938C302.551 16.6901 302.841 16.39 303.055 15.9934C303.27 15.5968 303.377 15.1145 303.377 14.5464C303.377 13.6996 303.152 13.0511 302.701 12.6009C302.262 12.14 301.721 11.9096 301.078 11.9096C300.434 11.9096 299.893 12.14 299.454 12.6009C299.025 13.0511 298.811 13.6996 298.811 14.5464C298.811 15.3931 299.02 16.047 299.438 16.5079C299.866 16.9581 300.402 17.1832 301.045 17.1832Z" fill="#C6C6C6"/>
</svg>
