<svg width="251" height="99" viewBox="0 0 251 99" fill="none" xmlns="http://www.w3.org/2000/svg">
<path d="M54.585 79.495C51.165 79.495 48.24 78.82 45.81 77.47C43.38 76.12 41.505 74.23 40.185 71.8C38.895 69.34 38.25 66.445 38.25 63.115C38.25 60.625 38.61 58.39 39.33 56.41C40.08 54.4 41.16 52.69 42.57 51.28C43.98 49.84 45.69 48.73 47.7 47.95C49.74 47.17 52.035 46.78 54.585 46.78C56.085 46.78 57.6 46.975 59.13 47.365C60.69 47.725 62.04 48.25 63.18 48.94C63.93 49.36 64.44 49.885 64.71 50.515C64.98 51.145 65.055 51.775 64.935 52.405C64.845 53.035 64.59 53.575 64.17 54.025C63.78 54.475 63.285 54.76 62.685 54.88C62.085 55 61.41 54.865 60.66 54.475C59.76 53.935 58.815 53.545 57.825 53.305C56.835 53.065 55.83 52.945 54.81 52.945C52.8 52.945 51.105 53.35 49.725 54.16C48.375 54.94 47.355 56.08 46.665 57.58C45.975 59.08 45.63 60.925 45.63 63.115C45.63 65.275 45.975 67.12 46.665 68.65C47.355 70.18 48.375 71.35 49.725 72.16C51.105 72.94 52.8 73.33 54.81 73.33C55.77 73.33 56.745 73.21 57.735 72.97C58.755 72.73 59.73 72.355 60.66 71.845C61.44 71.455 62.13 71.32 62.73 71.44C63.36 71.53 63.87 71.8 64.26 72.25C64.68 72.67 64.935 73.18 65.025 73.78C65.145 74.38 65.085 74.98 64.845 75.58C64.605 76.18 64.155 76.69 63.495 77.11C62.385 77.86 61.02 78.445 59.4 78.865C57.78 79.285 56.175 79.495 54.585 79.495ZM77.5097 87.1C76.2797 87.1 75.1997 86.86 74.2697 86.38C73.3697 85.93 72.6797 85.255 72.1997 84.355C71.7497 83.455 71.5247 82.375 71.5247 81.115V73.285C71.5247 72.085 71.3147 71.215 70.8947 70.675C70.5047 70.135 69.7847 69.85 68.7347 69.82C68.0447 69.76 67.5047 69.49 67.1147 69.01C66.7547 68.5 66.5747 67.885 66.5747 67.165C66.5747 66.475 66.7547 65.89 67.1147 65.41C67.5047 64.9 68.0447 64.63 68.7347 64.6C69.7847 64.54 70.5047 64.24 70.8947 63.7C71.3147 63.16 71.5247 62.29 71.5247 61.09V53.26C71.5247 51.37 72.0497 49.9 73.0997 48.85C74.1497 47.8 75.6197 47.275 77.5097 47.275H80.7497C81.5597 47.275 82.2197 47.515 82.7297 47.995C83.2697 48.475 83.5397 49.075 83.5397 49.795C83.5397 50.515 83.3297 51.115 82.9097 51.595C82.4897 52.075 81.9197 52.315 81.1997 52.315H80.0297C79.4597 52.315 79.0247 52.48 78.7247 52.81C78.4547 53.14 78.3197 53.635 78.3197 54.295V61.945C78.3197 62.875 78.1097 63.745 77.6897 64.555C77.2997 65.365 76.7597 66.025 76.0697 66.535C75.4097 67.045 74.6747 67.3 73.8647 67.3V67.12C74.6747 67.12 75.4097 67.375 76.0697 67.885C76.7597 68.365 77.2997 69.01 77.6897 69.82C78.1097 70.63 78.3197 71.515 78.3197 72.475V80.08C78.3197 80.74 78.4547 81.235 78.7247 81.565C79.0247 81.895 79.4747 82.06 80.0747 82.06H81.1997C81.9197 82.06 82.4897 82.3 82.9097 82.78C83.3297 83.26 83.5397 83.86 83.5397 84.58C83.5397 85.3 83.2697 85.9 82.7297 86.38C82.2197 86.86 81.5597 87.1 80.7497 87.1H77.5097ZM90.5175 79.405C89.3775 79.405 88.5075 79.09 87.9075 78.46C87.3075 77.83 87.0075 76.945 87.0075 75.805V50.47C87.0075 49.33 87.3075 48.445 87.9075 47.815C88.5075 47.185 89.3775 46.87 90.5175 46.87C91.6275 46.87 92.4825 47.185 93.0825 47.815C93.6825 48.445 93.9825 49.33 93.9825 50.47V75.805C93.9825 76.945 93.6825 77.83 93.0825 78.46C92.5125 79.09 91.6575 79.405 90.5175 79.405ZM103.607 79.405C102.557 79.405 101.747 79.12 101.177 78.55C100.637 77.95 100.367 77.11 100.367 76.03V50.38C100.367 49.24 100.637 48.37 101.177 47.77C101.747 47.17 102.497 46.87 103.427 46.87C104.237 46.87 104.852 47.035 105.272 47.365C105.722 47.665 106.232 48.175 106.802 48.895L122.597 69.01H121.382V50.2C121.382 49.15 121.652 48.34 122.192 47.77C122.762 47.17 123.572 46.87 124.622 46.87C125.672 46.87 126.467 47.17 127.007 47.77C127.577 48.34 127.862 49.15 127.862 50.2V76.165C127.862 77.155 127.607 77.95 127.097 78.55C126.587 79.12 125.897 79.405 125.027 79.405C124.187 79.405 123.512 79.24 123.002 78.91C122.522 78.58 121.997 78.055 121.427 77.335L105.677 57.22H106.847V76.03C106.847 77.11 106.577 77.95 106.037 78.55C105.497 79.12 104.687 79.405 103.607 79.405ZM134.114 87.1C133.334 87.1 132.674 86.86 132.134 86.38C131.594 85.9 131.324 85.3 131.324 84.58C131.324 83.86 131.534 83.26 131.954 82.78C132.374 82.3 132.944 82.06 133.664 82.06H134.789C135.389 82.06 135.824 81.895 136.094 81.565C136.394 81.235 136.544 80.74 136.544 80.08V72.475C136.544 71.515 136.739 70.63 137.129 69.82C137.549 69.01 138.104 68.365 138.794 67.885C139.484 67.375 140.219 67.12 140.999 67.12V67.3C140.219 67.3 139.484 67.045 138.794 66.535C138.104 66.025 137.549 65.365 137.129 64.555C136.739 63.745 136.544 62.875 136.544 61.945V54.295C136.544 53.635 136.394 53.14 136.094 52.81C135.824 52.48 135.404 52.315 134.834 52.315H133.664C132.944 52.315 132.374 52.075 131.954 51.595C131.534 51.115 131.324 50.515 131.324 49.795C131.324 49.075 131.594 48.475 132.134 47.995C132.674 47.515 133.334 47.275 134.114 47.275H137.354C138.614 47.275 139.694 47.515 140.594 47.995C141.494 48.445 142.169 49.12 142.619 50.02C143.099 50.89 143.339 51.97 143.339 53.26V61.09C143.339 62.29 143.549 63.16 143.969 63.7C144.389 64.24 145.109 64.54 146.129 64.6C146.819 64.63 147.344 64.9 147.704 65.41C148.094 65.89 148.289 66.49 148.289 67.21C148.289 67.9 148.094 68.5 147.704 69.01C147.344 69.49 146.819 69.76 146.129 69.82C145.109 69.85 144.389 70.135 143.969 70.675C143.549 71.215 143.339 72.085 143.339 73.285V81.115C143.339 83.005 142.814 84.475 141.764 85.525C140.714 86.575 139.244 87.1 137.354 87.1H134.114ZM156.527 79C155.357 79 154.457 78.685 153.827 78.055C153.197 77.425 152.882 76.525 152.882 75.355V50.92C152.882 49.75 153.197 48.85 153.827 48.22C154.457 47.59 155.357 47.275 156.527 47.275H172.232C173.132 47.275 173.807 47.515 174.257 47.995C174.737 48.445 174.977 49.105 174.977 49.975C174.977 50.875 174.737 51.565 174.257 52.045C173.807 52.495 173.132 52.72 172.232 52.72H159.542V60.145H171.197C172.127 60.145 172.817 60.385 173.267 60.865C173.747 61.315 173.987 61.99 173.987 62.89C173.987 63.79 173.747 64.48 173.267 64.96C172.817 65.41 172.127 65.635 171.197 65.635H159.542V73.555H172.232C173.132 73.555 173.807 73.795 174.257 74.275C174.737 74.725 174.977 75.385 174.977 76.255C174.977 77.155 174.737 77.845 174.257 78.325C173.807 78.775 173.132 79 172.232 79H156.527ZM183.368 79.405C182.348 79.405 181.568 79.12 181.028 78.55C180.488 77.98 180.218 77.185 180.218 76.165V50.11C180.218 49.09 180.503 48.295 181.073 47.725C181.673 47.155 182.483 46.87 183.503 46.87C184.403 46.87 185.108 47.05 185.618 47.41C186.158 47.74 186.653 48.325 187.103 49.165L197.498 68.155H195.968L206.363 49.165C206.813 48.325 207.293 47.74 207.803 47.41C208.343 47.05 209.048 46.87 209.918 46.87C210.938 46.87 211.718 47.155 212.258 47.725C212.828 48.295 213.113 49.09 213.113 50.11V76.165C213.113 77.185 212.843 77.98 212.303 78.55C211.763 79.12 210.983 79.405 209.963 79.405C208.943 79.405 208.148 79.12 207.578 78.55C207.038 77.98 206.768 77.185 206.768 76.165V57.94H207.758L199.388 72.925C199.028 73.495 198.638 73.93 198.218 74.23C197.828 74.5 197.303 74.635 196.643 74.635C195.983 74.635 195.443 74.485 195.023 74.185C194.603 73.885 194.228 73.465 193.898 72.925L185.438 57.895H186.518V76.165C186.518 77.185 186.248 77.98 185.708 78.55C185.198 79.12 184.418 79.405 183.368 79.405ZM220.447 79.405C219.607 79.405 218.917 79.21 218.377 78.82C217.867 78.43 217.537 77.905 217.387 77.245C217.267 76.585 217.402 75.85 217.792 75.04L229.312 49.795C229.792 48.775 230.362 48.04 231.022 47.59C231.682 47.11 232.447 46.87 233.317 46.87C234.187 46.87 234.952 47.11 235.612 47.59C236.272 48.04 236.827 48.775 237.277 49.795L248.887 75.04C249.277 75.85 249.412 76.6 249.292 77.29C249.202 77.95 248.902 78.475 248.392 78.865C247.882 79.225 247.222 79.405 246.412 79.405C245.392 79.405 244.597 79.165 244.027 78.685C243.487 78.205 243.007 77.455 242.587 76.435L239.887 70.18L242.677 72.115H223.912L226.702 70.18L224.047 76.435C223.597 77.485 223.117 78.25 222.607 78.73C222.127 79.18 221.407 79.405 220.447 79.405ZM233.227 54.7L227.467 68.425L226.252 66.67H240.337L239.122 68.425L233.317 54.7H233.227Z" fill="#00264D"/>
<g filter="url(#filter0_d_8_1091)">
<path d="M69.161 8.34198L65.1093 4.29023C62.7497 6.64978 58.8887 6.64978 56.5291 4.29022L4.28532 56.534L4.42356 56.6722C6.64488 59.0461 6.60197 62.7975 4.29009 65.1094L8.34185 69.1612C10.6061 68.0696 13.4089 68.4509 15.2823 70.3243C17.1556 72.1976 17.5322 75.0052 16.4454 77.2647L20.7402 81.5595C23.0044 80.468 25.8073 80.8493 27.6806 82.7226C29.5492 84.5912 29.9305 87.4036 28.8437 89.6631L32.8907 93.71C35.2121 91.3886 38.9445 91.3457 41.3231 93.5813L41.4614 93.7196L93.7051 41.4758L93.7004 41.471C91.3313 39.1019 91.3361 35.2647 93.7051 32.8956L89.6534 28.8438C87.3892 29.9354 84.5863 29.5541 82.713 27.6808C80.8444 25.8122 80.4631 22.9998 81.5499 20.7403L77.2598 16.4503C74.9956 17.5418 72.1927 17.1605 70.3194 15.2872C68.446 13.4138 68.0695 10.6062 69.161 8.34198Z" fill="#004A9B"/>
<path d="M24.9349 45.1413L53.5355 73.742M44.7504 24.9636L73.351 53.5642M84.2526 42.6626L42.6578 84.2575C41.9046 85.0106 40.6748 85.0106 39.9217 84.2575L14.0572 58.393C13.304 57.6398 13.304 56.41 14.0572 55.6568L55.6472 14.0668C56.4004 13.3136 57.6302 13.3136 58.3833 14.0668L84.2431 39.9265C84.4233 40.1055 84.5666 40.3183 84.6647 40.5527C84.7627 40.7871 84.8136 41.0385 84.8145 41.2926C84.8154 41.5467 84.7662 41.7984 84.6698 42.0335C84.5734 42.2686 84.4316 42.4824 84.2526 42.6626Z" stroke="#6D98FB" stroke-width="3.43697" stroke-miterlimit="10"/>
</g>
<path d="M52.585 76.495C49.165 76.495 46.24 75.82 43.81 74.47C41.38 73.12 39.505 71.23 38.185 68.8C36.895 66.34 36.25 63.445 36.25 60.115C36.25 57.625 36.61 55.39 37.33 53.41C38.08 51.4 39.16 49.69 40.57 48.28C41.98 46.84 43.69 45.73 45.7 44.95C47.74 44.17 50.035 43.78 52.585 43.78C54.085 43.78 55.6 43.975 57.13 44.365C58.69 44.725 60.04 45.25 61.18 45.94C61.93 46.36 62.44 46.885 62.71 47.515C62.98 48.145 63.055 48.775 62.935 49.405C62.845 50.035 62.59 50.575 62.17 51.025C61.78 51.475 61.285 51.76 60.685 51.88C60.085 52 59.41 51.865 58.66 51.475C57.76 50.935 56.815 50.545 55.825 50.305C54.835 50.065 53.83 49.945 52.81 49.945C50.8 49.945 49.105 50.35 47.725 51.16C46.375 51.94 45.355 53.08 44.665 54.58C43.975 56.08 43.63 57.925 43.63 60.115C43.63 62.275 43.975 64.12 44.665 65.65C45.355 67.18 46.375 68.35 47.725 69.16C49.105 69.94 50.8 70.33 52.81 70.33C53.77 70.33 54.745 70.21 55.735 69.97C56.755 69.73 57.73 69.355 58.66 68.845C59.44 68.455 60.13 68.32 60.73 68.44C61.36 68.53 61.87 68.8 62.26 69.25C62.68 69.67 62.935 70.18 63.025 70.78C63.145 71.38 63.085 71.98 62.845 72.58C62.605 73.18 62.155 73.69 61.495 74.11C60.385 74.86 59.02 75.445 57.4 75.865C55.78 76.285 54.175 76.495 52.585 76.495ZM75.5097 84.1C74.2797 84.1 73.1997 83.86 72.2697 83.38C71.3697 82.93 70.6797 82.255 70.1997 81.355C69.7497 80.455 69.5247 79.375 69.5247 78.115V70.285C69.5247 69.085 69.3147 68.215 68.8947 67.675C68.5047 67.135 67.7847 66.85 66.7347 66.82C66.0447 66.76 65.5047 66.49 65.1147 66.01C64.7547 65.5 64.5747 64.885 64.5747 64.165C64.5747 63.475 64.7547 62.89 65.1147 62.41C65.5047 61.9 66.0447 61.63 66.7347 61.6C67.7847 61.54 68.5047 61.24 68.8947 60.7C69.3147 60.16 69.5247 59.29 69.5247 58.09V50.26C69.5247 48.37 70.0497 46.9 71.0997 45.85C72.1497 44.8 73.6197 44.275 75.5097 44.275H78.7497C79.5597 44.275 80.2197 44.515 80.7297 44.995C81.2697 45.475 81.5397 46.075 81.5397 46.795C81.5397 47.515 81.3297 48.115 80.9097 48.595C80.4897 49.075 79.9197 49.315 79.1997 49.315H78.0297C77.4597 49.315 77.0247 49.48 76.7247 49.81C76.4547 50.14 76.3197 50.635 76.3197 51.295V58.945C76.3197 59.875 76.1097 60.745 75.6897 61.555C75.2997 62.365 74.7597 63.025 74.0697 63.535C73.4097 64.045 72.6747 64.3 71.8647 64.3V64.12C72.6747 64.12 73.4097 64.375 74.0697 64.885C74.7597 65.365 75.2997 66.01 75.6897 66.82C76.1097 67.63 76.3197 68.515 76.3197 69.475V77.08C76.3197 77.74 76.4547 78.235 76.7247 78.565C77.0247 78.895 77.4747 79.06 78.0747 79.06H79.1997C79.9197 79.06 80.4897 79.3 80.9097 79.78C81.3297 80.26 81.5397 80.86 81.5397 81.58C81.5397 82.3 81.2697 82.9 80.7297 83.38C80.2197 83.86 79.5597 84.1 78.7497 84.1H75.5097ZM88.5175 76.405C87.3775 76.405 86.5075 76.09 85.9075 75.46C85.3075 74.83 85.0075 73.945 85.0075 72.805V47.47C85.0075 46.33 85.3075 45.445 85.9075 44.815C86.5075 44.185 87.3775 43.87 88.5175 43.87C89.6275 43.87 90.4825 44.185 91.0825 44.815C91.6825 45.445 91.9825 46.33 91.9825 47.47V72.805C91.9825 73.945 91.6825 74.83 91.0825 75.46C90.5125 76.09 89.6575 76.405 88.5175 76.405ZM101.607 76.405C100.557 76.405 99.7469 76.12 99.1769 75.55C98.6369 74.95 98.3669 74.11 98.3669 73.03V47.38C98.3669 46.24 98.6369 45.37 99.1769 44.77C99.7469 44.17 100.497 43.87 101.427 43.87C102.237 43.87 102.852 44.035 103.272 44.365C103.722 44.665 104.232 45.175 104.802 45.895L120.597 66.01H119.382V47.2C119.382 46.15 119.652 45.34 120.192 44.77C120.762 44.17 121.572 43.87 122.622 43.87C123.672 43.87 124.467 44.17 125.007 44.77C125.577 45.34 125.862 46.15 125.862 47.2V73.165C125.862 74.155 125.607 74.95 125.097 75.55C124.587 76.12 123.897 76.405 123.027 76.405C122.187 76.405 121.512 76.24 121.002 75.91C120.522 75.58 119.997 75.055 119.427 74.335L103.677 54.22H104.847V73.03C104.847 74.11 104.577 74.95 104.037 75.55C103.497 76.12 102.687 76.405 101.607 76.405ZM132.114 84.1C131.334 84.1 130.674 83.86 130.134 83.38C129.594 82.9 129.324 82.3 129.324 81.58C129.324 80.86 129.534 80.26 129.954 79.78C130.374 79.3 130.944 79.06 131.664 79.06H132.789C133.389 79.06 133.824 78.895 134.094 78.565C134.394 78.235 134.544 77.74 134.544 77.08V69.475C134.544 68.515 134.739 67.63 135.129 66.82C135.549 66.01 136.104 65.365 136.794 64.885C137.484 64.375 138.219 64.12 138.999 64.12V64.3C138.219 64.3 137.484 64.045 136.794 63.535C136.104 63.025 135.549 62.365 135.129 61.555C134.739 60.745 134.544 59.875 134.544 58.945V51.295C134.544 50.635 134.394 50.14 134.094 49.81C133.824 49.48 133.404 49.315 132.834 49.315H131.664C130.944 49.315 130.374 49.075 129.954 48.595C129.534 48.115 129.324 47.515 129.324 46.795C129.324 46.075 129.594 45.475 130.134 44.995C130.674 44.515 131.334 44.275 132.114 44.275H135.354C136.614 44.275 137.694 44.515 138.594 44.995C139.494 45.445 140.169 46.12 140.619 47.02C141.099 47.89 141.339 48.97 141.339 50.26V58.09C141.339 59.29 141.549 60.16 141.969 60.7C142.389 61.24 143.109 61.54 144.129 61.6C144.819 61.63 145.344 61.9 145.704 62.41C146.094 62.89 146.289 63.49 146.289 64.21C146.289 64.9 146.094 65.5 145.704 66.01C145.344 66.49 144.819 66.76 144.129 66.82C143.109 66.85 142.389 67.135 141.969 67.675C141.549 68.215 141.339 69.085 141.339 70.285V78.115C141.339 80.005 140.814 81.475 139.764 82.525C138.714 83.575 137.244 84.1 135.354 84.1H132.114ZM154.527 76C153.357 76 152.457 75.685 151.827 75.055C151.197 74.425 150.882 73.525 150.882 72.355V47.92C150.882 46.75 151.197 45.85 151.827 45.22C152.457 44.59 153.357 44.275 154.527 44.275H170.232C171.132 44.275 171.807 44.515 172.257 44.995C172.737 45.445 172.977 46.105 172.977 46.975C172.977 47.875 172.737 48.565 172.257 49.045C171.807 49.495 171.132 49.72 170.232 49.72H157.542V57.145H169.197C170.127 57.145 170.817 57.385 171.267 57.865C171.747 58.315 171.987 58.99 171.987 59.89C171.987 60.79 171.747 61.48 171.267 61.96C170.817 62.41 170.127 62.635 169.197 62.635H157.542V70.555H170.232C171.132 70.555 171.807 70.795 172.257 71.275C172.737 71.725 172.977 72.385 172.977 73.255C172.977 74.155 172.737 74.845 172.257 75.325C171.807 75.775 171.132 76 170.232 76H154.527ZM181.368 76.405C180.348 76.405 179.568 76.12 179.028 75.55C178.488 74.98 178.218 74.185 178.218 73.165V47.11C178.218 46.09 178.503 45.295 179.073 44.725C179.673 44.155 180.483 43.87 181.503 43.87C182.403 43.87 183.108 44.05 183.618 44.41C184.158 44.74 184.653 45.325 185.103 46.165L195.498 65.155H193.968L204.363 46.165C204.813 45.325 205.293 44.74 205.803 44.41C206.343 44.05 207.048 43.87 207.918 43.87C208.938 43.87 209.718 44.155 210.258 44.725C210.828 45.295 211.113 46.09 211.113 47.11V73.165C211.113 74.185 210.843 74.98 210.303 75.55C209.763 76.12 208.983 76.405 207.963 76.405C206.943 76.405 206.148 76.12 205.578 75.55C205.038 74.98 204.768 74.185 204.768 73.165V54.94H205.758L197.388 69.925C197.028 70.495 196.638 70.93 196.218 71.23C195.828 71.5 195.303 71.635 194.643 71.635C193.983 71.635 193.443 71.485 193.023 71.185C192.603 70.885 192.228 70.465 191.898 69.925L183.438 54.895H184.518V73.165C184.518 74.185 184.248 74.98 183.708 75.55C183.198 76.12 182.418 76.405 181.368 76.405ZM218.447 76.405C217.607 76.405 216.917 76.21 216.377 75.82C215.867 75.43 215.537 74.905 215.387 74.245C215.267 73.585 215.402 72.85 215.792 72.04L227.312 46.795C227.792 45.775 228.362 45.04 229.022 44.59C229.682 44.11 230.447 43.87 231.317 43.87C232.187 43.87 232.952 44.11 233.612 44.59C234.272 45.04 234.827 45.775 235.277 46.795L246.887 72.04C247.277 72.85 247.412 73.6 247.292 74.29C247.202 74.95 246.902 75.475 246.392 75.865C245.882 76.225 245.222 76.405 244.412 76.405C243.392 76.405 242.597 76.165 242.027 75.685C241.487 75.205 241.007 74.455 240.587 73.435L237.887 67.18L240.677 69.115H221.912L224.702 67.18L222.047 73.435C221.597 74.485 221.117 75.25 220.607 75.73C220.127 76.18 219.407 76.405 218.447 76.405ZM231.227 51.7L225.467 65.425L224.252 63.67H238.337L237.122 65.425L231.317 51.7H231.227Z" fill="#D2DBFF"/>
<defs>
<filter id="filter0_d_8_1091" x="4.28532" y="4.29004" width="94.6779" height="94.6878" filterUnits="userSpaceOnUse" color-interpolation-filters="sRGB">
<feFlood flood-opacity="0" result="BackgroundImageFix"/>
<feColorMatrix in="SourceAlpha" type="matrix" values="0 0 0 0 0 0 0 0 0 0 0 0 0 0 0 0 0 0 127 0" result="hardAlpha"/>
<feOffset dx="5.25811" dy="5.25811"/>
<feComposite in2="hardAlpha" operator="out"/>
<feColorMatrix type="matrix" values="0 0 0 0 0 0 0 0 0 0.14902 0 0 0 0 0.301961 0 0 0 1 0"/>
<feBlend mode="normal" in2="BackgroundImageFix" result="effect1_dropShadow_8_1091"/>
<feBlend mode="normal" in="SourceGraphic" in2="effect1_dropShadow_8_1091" result="shape"/>
</filter>
</defs>
</svg>
