<svg width="59" height="58" viewBox="0 0 59 58" fill="none" xmlns="http://www.w3.org/2000/svg">
<ellipse cx="29.2484" cy="29" rx="29.2484" ry="29" fill="#00264D"/>
<path d="M32.3827 11.8125C24.5374 11.8125 18.1817 18.1173 18.1817 25.8925C18.1776 28.454 18.8818 30.9675 20.2177 33.16L13.3326 39.9866L13.3566 40.0103C12.6217 40.7077 12.1704 41.6977 12.1704 42.8167C12.17 44.9784 13.9069 46.6689 16.0849 46.6684C17.1974 46.668 18.1924 46.2267 18.9024 45.5086L18.9197 45.5257L26.0235 38.4818C27.9968 39.4641 30.1747 39.9747 32.3827 39.9725C40.2286 39.9725 46.5829 33.6686 46.5829 25.8925C46.5829 18.1173 40.2281 11.8125 32.3827 11.8125ZM32.4688 34.436C27.5652 34.436 23.593 30.4962 23.593 25.636C23.593 20.7766 27.5652 16.836 32.4688 16.836C37.3725 16.836 41.3438 20.7762 41.3438 25.636C41.3442 30.4962 37.3725 34.436 32.4688 34.436Z" fill="#D2DBFF"/>
</svg>
