<svg width="14" height="12" viewBox="0 0 14 12" fill="none" xmlns="http://www.w3.org/2000/svg">
<path d="M2.5 5.5H1.5C1.23478 5.5 0.98043 5.60536 0.792893 5.79289C0.605357 5.98043 0.5 6.23478 0.5 6.5V11.5H3.5M2.5 5.5C2.76522 5.5 3.01957 5.60536 3.20711 5.79289C3.39464 5.98043 3.5 6.23478 3.5 6.5V11.5M2.5 5.5V3.5C2.5 2.70435 2.81607 1.94129 3.37868 1.37868C3.94129 0.816071 4.70435 0.5 5.5 0.5H8.5C9.29565 0.5 10.0587 0.816071 10.6213 1.37868C11.1839 1.94129 11.5 2.70435 11.5 3.5V5.5M3.5 11.5H10.5M11.5 5.5H12.5C12.7652 5.5 13.0196 5.60536 13.2071 5.79289C13.3946 5.98043 13.5 6.23478 13.5 6.5V11.5H10.5M11.5 5.5C11.2348 5.5 10.9804 5.60536 10.7929 5.79289C10.6054 5.98043 10.5 6.23478 10.5 6.5V11.5M3.5 7.5H10.5" stroke="black" stroke-linecap="round" stroke-linejoin="round"/>
</svg>
