<svg width="68" height="68" viewBox="0 0 68 68" fill="none" xmlns="http://www.w3.org/2000/svg">
<path d="M0.105469 6.8C0.105469 3.04446 3.14993 0 6.90547 0H40.8002C55.8224 0 68.0002 12.1779 68.0002 27.2V40.8C68.0002 55.8221 55.8223 68 40.8002 68H6.90547C3.14993 68 0.105469 64.9555 0.105469 61.2V6.8Z" fill="#004C99"/>
<path d="M27.7313 51.0112C26.6925 52.0516 25.0082 52.0516 23.9693 51.0112C22.9305 49.9707 22.9305 48.2838 23.9693 47.2433L39.0174 32.1719C40.0563 31.1314 41.7406 31.1314 42.7795 32.1719C43.8183 33.2123 43.8183 34.8992 42.7795 35.9397L27.7313 51.0112Z" fill="#D2DBFF"/>
<path d="M23.9693 20.8683C22.9305 19.8278 22.9305 18.1409 23.9693 17.1004C25.0082 16.0599 26.6925 16.0599 27.7313 17.1004L42.7795 32.1719C43.8183 33.2123 43.8183 34.8992 42.7795 35.9397C41.7406 36.9802 40.0563 36.9802 39.0174 35.9397L23.9693 20.8683Z" fill="#D2DBFF"/>
</svg>
