<svg width="83" height="83" viewBox="0 0 83 83" fill="none" xmlns="http://www.w3.org/2000/svg">
<path d="M83 41.5C83 64.4198 64.4198 83 41.5 83C18.5802 83 0 64.4198 0 41.5C0 18.5802 18.5802 0 41.5 0C64.4198 0 83 18.5802 83 41.5Z" fill="#D82F1E"/>
<path d="M31.9998 24L31.9998 60C32.0009 60.3645 32.1015 60.7218 32.2905 61.0334C32.4796 61.345 32.7501 61.5991 33.0729 61.7684C33.3957 61.9377 33.7585 62.0158 34.1224 61.9942C34.4862 61.9726 34.8373 61.8523 35.1378 61.646L61.1378 43.646C62.2158 42.9 62.2158 41.104 61.1378 40.356L35.1378 22.356C34.8379 22.1477 34.4867 22.0255 34.1222 22.0027C33.7577 21.98 33.394 22.0576 33.0706 22.227C32.7471 22.3965 32.4763 22.6514 32.2875 22.9639C32.0987 23.2765 31.9992 23.6348 31.9998 24Z" fill="#E6A352"/>
</svg>
