<svg width="21" height="36" viewBox="0 0 21 36" fill="none" xmlns="http://www.w3.org/2000/svg">
<path d="M15.9112 1.10017C16.9501 0.059708 18.6344 0.0597076 19.6733 1.10017C20.7121 2.14064 20.7121 3.82757 19.6733 4.86803L4.62515 19.9395C3.5863 20.9799 1.90198 20.9799 0.863126 19.9395C-0.175729 18.899 -0.175729 17.2121 0.863126 16.1716L15.9112 1.10017Z" fill="#D2DBFF"/>
<path d="M19.6733 31.2431C20.7121 32.2835 20.7121 33.9705 19.6733 35.0109C18.6344 36.0514 16.9501 36.0514 15.9112 35.0109L0.863126 19.9395C-0.175729 18.899 -0.175729 17.2121 0.863126 16.1716C1.90198 15.1311 3.5863 15.1312 4.62515 16.1716L19.6733 31.2431Z" fill="#D2DBFF"/>
</svg>
