<svg width="21" height="36" viewBox="0 0 21 36" fill="none" xmlns="http://www.w3.org/2000/svg">
<path d="M4.73134 35.0112C3.69249 36.0516 2.00817 36.0516 0.969315 35.0112C-0.0695418 33.9707 -0.0695416 32.2838 0.969315 31.2433L16.0174 16.1719C17.0563 15.1314 18.7406 15.1314 19.7795 16.1719C20.8183 17.2123 20.8183 18.8992 19.7795 19.9397L4.73134 35.0112Z" fill="#D2DBFF"/>
<path d="M0.969317 4.86825C-0.0695391 3.82778 -0.069539 2.14086 0.969318 1.10039C2.00817 0.0599235 3.69249 0.0599236 4.73134 1.10039L19.7795 16.1719C20.8183 17.2123 20.8183 18.8992 19.7795 19.9397C18.7406 20.9802 17.0563 20.9802 16.0174 19.9397L0.969317 4.86825Z" fill="#D2DBFF"/>
</svg>
