<svg width="900" height="50" viewBox="0 0 900 50" fill="none" xmlns="http://www.w3.org/2000/svg">
<rect width="900" height="50" fill="url(#paint0_linear_167_555)"/>
<path d="M900 0H0V38.9952C123.984 29.4805 280.222 23.8074 450 23.8074C619.778 23.8074 776.016 29.4805 900 38.9952V0Z" fill="#CC8000"/>
<path d="M440.077 7.228V8.81H437.473V17H435.513V8.81H432.909V7.228H440.077ZM444.167 8.81V11.26H447.457V12.814H444.167V15.404H447.877V17H442.207V7.214H447.877V8.81H444.167ZM452.318 15.446H455.538V17H450.358V7.228H452.318V15.446ZM463.476 15.138H459.584L458.94 17H456.882L460.396 7.214H462.678L466.192 17H464.12L463.476 15.138ZM462.944 13.57L461.53 9.482L460.116 13.57H462.944Z" fill="#141414"/>
<defs>
<linearGradient id="paint0_linear_167_555" x1="450" y1="0" x2="450" y2="50" gradientUnits="userSpaceOnUse">
<stop stop-color="#CC8000"/>
<stop offset="1" stop-color="#CC8000" stop-opacity="0"/>
</linearGradient>
</defs>
</svg>
